# Blender v2.79 (sub 0) OBJ File: ''
# www.blender.org
o Box002.001
v -0.042000 -0.004000 0.043000
v 0.042000 -0.004000 0.043000
v 0.042000 -0.000000 0.072000
v -0.001000 -0.000000 0.072000
v 0.042000 0.004000 0.043000
v -0.042000 0.004000 0.043000
v -0.042000 -0.004000 -0.043000
v -0.001000 0.000000 -0.079000
v 0.042000 0.000000 -0.079000
v 0.042000 -0.004000 -0.043000
v 0.042000 0.004000 -0.043000
v -0.042000 0.004000 -0.043000
v -0.157000 -0.044000 -0.001000
v -0.157000 -0.022000 -0.040000
v 0.131000 -0.022000 -0.040000
v 0.131000 -0.044000 -0.001000
v -0.157000 0.022000 -0.040000
v 0.131000 0.022000 -0.040000
v -0.157000 0.044000 -0.001000
v 0.131000 0.044000 -0.001000
v -0.157000 0.022000 0.037000
v 0.131000 0.022000 0.037000
v -0.157000 -0.022000 0.037000
v 0.131000 -0.022000 0.037000
v 0.229000 0.000000 -0.001000
v -0.157000 -0.022000 0.037000
v -0.157000 -0.022000 0.037000
v -0.157000 -0.022000 0.037000
v 0.131000 -0.022000 0.037000
v 0.131000 -0.022000 0.037000
v 0.131000 -0.022000 0.037000
v 0.131000 -0.022000 0.037000
v -0.157000 0.022000 -0.040000
v -0.157000 0.022000 -0.040000
v -0.157000 0.022000 -0.040000
v -0.157000 0.022000 -0.040000
v -0.157000 0.022000 -0.040000
v 0.131000 0.044000 -0.001000
v 0.131000 0.044000 -0.001000
v 0.131000 0.044000 -0.001000
v 0.131000 0.044000 -0.001000
v -0.042000 -0.004000 0.043000
v -0.042000 -0.004000 0.043000
v -0.042000 -0.004000 0.043000
v -0.042000 -0.004000 0.043000
v -0.042000 -0.004000 0.043000
v -0.042000 -0.004000 -0.043000
v -0.042000 -0.004000 -0.043000
v -0.042000 -0.004000 -0.043000
v -0.042000 -0.004000 -0.043000
v -0.042000 -0.004000 -0.043000
v 0.042000 -0.000000 0.072000
v 0.042000 -0.000000 0.072000
v 0.042000 -0.000000 0.072000
v -0.001000 -0.000000 0.072000
v -0.001000 -0.000000 0.072000
v -0.001000 -0.000000 0.072000
v 0.131000 -0.044000 -0.001000
v 0.131000 -0.044000 -0.001000
v 0.131000 -0.044000 -0.001000
v 0.131000 -0.044000 -0.001000
v 0.229000 0.000000 -0.001000
v 0.229000 0.000000 -0.001000
v 0.229000 0.000000 -0.001000
v 0.229000 0.000000 -0.001000
v 0.229000 0.000000 -0.001000
v -0.157000 -0.044000 -0.001000
v -0.157000 -0.044000 -0.001000
v -0.157000 -0.044000 -0.001000
v -0.157000 -0.044000 -0.001000
v -0.157000 -0.044000 -0.001000
v -0.157000 -0.022000 -0.040000
v -0.157000 -0.022000 -0.040000
v -0.157000 -0.022000 -0.040000
v 0.042000 -0.004000 0.043000
v 0.042000 -0.004000 0.043000
v 0.042000 -0.004000 0.043000
v 0.042000 -0.004000 0.043000
v 0.042000 0.004000 -0.043000
v 0.042000 0.004000 -0.043000
v 0.042000 0.004000 -0.043000
v 0.042000 0.004000 -0.043000
v 0.042000 0.004000 -0.043000
v 0.042000 0.004000 0.043000
v 0.042000 0.004000 0.043000
v 0.042000 0.004000 0.043000
v 0.042000 0.004000 0.043000
v 0.042000 0.004000 0.043000
v -0.157000 0.044000 -0.001000
v -0.157000 0.044000 -0.001000
v -0.157000 0.044000 -0.001000
v 0.131000 0.022000 0.037000
v 0.131000 0.022000 0.037000
v 0.131000 0.022000 0.037000
v 0.131000 0.022000 0.037000
v -0.042000 0.004000 -0.043000
v -0.042000 0.004000 -0.043000
v -0.042000 0.004000 -0.043000
v -0.042000 0.004000 -0.043000
v 0.042000 -0.004000 -0.043000
v 0.042000 -0.004000 -0.043000
v 0.042000 -0.004000 -0.043000
v 0.042000 -0.004000 -0.043000
v -0.042000 0.004000 0.043000
v -0.042000 0.004000 0.043000
v -0.042000 0.004000 0.043000
v -0.042000 0.004000 0.043000
v 0.131000 0.022000 -0.040000
v 0.131000 0.022000 -0.040000
v 0.131000 0.022000 -0.040000
v 0.131000 0.022000 -0.040000
v 0.042000 0.000000 -0.079000
v 0.042000 0.000000 -0.079000
v 0.042000 0.000000 -0.079000
v -0.157000 0.022000 0.037000
v -0.157000 0.022000 0.037000
v -0.157000 0.022000 0.037000
v -0.157000 0.022000 0.037000
v -0.157000 0.022000 0.037000
v 0.131000 -0.022000 -0.040000
v 0.131000 -0.022000 -0.040000
v 0.131000 -0.022000 -0.040000
v 0.131000 -0.022000 -0.040000
v -0.001000 0.000000 -0.079000
v -0.001000 0.000000 -0.079000
v -0.001000 0.000000 -0.079000
vt 0.420000 0.226000
vt 0.420000 0.351000
vt 0.377000 0.351000
vt 0.377000 0.351000
vt 0.377000 0.287000
vt 0.420000 0.226000
vt 0.160000 0.342000
vt 0.160000 0.353000
vt 0.117000 0.348000
vt 0.420000 0.066000
vt 0.420000 0.191000
vt 0.377000 0.130000
vt 0.377000 0.130000
vt 0.377000 0.066000
vt 0.420000 0.066000
vt 0.277000 0.312000
vt 0.277000 0.300000
vt 0.345000 0.306000
vt 0.546000 0.226000
vt 0.600000 0.287000
vt 0.600000 0.351000
vt 0.600000 0.351000
vt 0.546000 0.351000
vt 0.546000 0.226000
vt 0.286000 0.342000
vt 0.339000 0.348000
vt 0.286000 0.353000
vt 0.546000 0.066000
vt 0.600000 0.066000
vt 0.600000 0.130000
vt 0.600000 0.130000
vt 0.546000 0.191000
vt 0.546000 0.066000
vt 0.276000 0.181000
vt 0.346000 0.188000
vt 0.276000 0.194000
vt 0.546000 0.351000
vt 0.420000 0.351000
vt 0.420000 0.226000
vt 0.420000 0.226000
vt 0.546000 0.226000
vt 0.546000 0.351000
vt 0.286000 0.353000
vt 0.160000 0.353000
vt 0.160000 0.342000
vt 0.160000 0.342000
vt 0.286000 0.342000
vt 0.286000 0.353000
vt 0.546000 0.191000
vt 0.420000 0.191000
vt 0.420000 0.066000
vt 0.420000 0.066000
vt 0.546000 0.066000
vt 0.546000 0.191000
vt 0.601000 0.033000
vt 0.475000 0.033000
vt 0.475000 0.022000
vt 0.475000 0.022000
vt 0.601000 0.022000
vt 0.601000 0.033000
vt 0.022000 0.917000
vt 0.022000 0.856000
vt 0.480000 0.856000
vt 0.480000 0.856000
vt 0.480000 0.917000
vt 0.022000 0.917000
vt 0.022000 0.534000
vt 0.022000 0.468000
vt 0.448000 0.468000
vt 0.448000 0.468000
vt 0.448000 0.534000
vt 0.022000 0.534000
vt 0.637000 0.715000
vt 0.637000 0.776000
vt 0.179000 0.776000
vt 0.179000 0.776000
vt 0.179000 0.715000
vt 0.637000 0.715000
vt 0.637000 0.776000
vt 0.637000 0.837000
vt 0.179000 0.837000
vt 0.179000 0.837000
vt 0.179000 0.776000
vt 0.637000 0.776000
vt 0.022000 0.443000
vt 0.022000 0.377000
vt 0.448000 0.377000
vt 0.448000 0.377000
vt 0.448000 0.443000
vt 0.022000 0.443000
vt 0.022000 0.978000
vt 0.022000 0.917000
vt 0.480000 0.917000
vt 0.480000 0.917000
vt 0.480000 0.978000
vt 0.022000 0.978000
vt 0.524000 0.691000
vt 0.492000 0.635000
vt 0.524000 0.578000
vt 0.524000 0.578000
vt 0.590000 0.578000
vt 0.622000 0.635000
vt 0.524000 0.691000
vt 0.524000 0.578000
vt 0.622000 0.635000
vt 0.590000 0.691000
vt 0.524000 0.691000
vt 0.622000 0.635000
vt 0.022000 0.776000
vt 0.179000 0.715000
vt 0.179000 0.776000
vt 0.179000 0.837000
vt 0.022000 0.776000
vt 0.179000 0.776000
vt 0.448000 0.443000
vt 0.448000 0.377000
vt 0.595000 0.410000
vt 0.480000 0.978000
vt 0.480000 0.917000
vt 0.637000 0.917000
vt 0.480000 0.917000
vt 0.480000 0.856000
vt 0.637000 0.917000
vt 0.595000 0.501000
vt 0.448000 0.534000
vt 0.448000 0.468000
vn -0.0006 -0.9916 0.1290
vn -0.0000 -0.9917 0.1289
vn -0.0073 -0.9909 0.1341
vn 0.0019 -0.9916 0.1292
vn 1.0000 0.0000 0.0000
vn 0.0025 0.9916 0.1294
vn -0.0000 0.9917 0.1289
vn -0.0017 0.9916 0.1291
vn 0.0072 0.9910 0.1338
vn 0.0000 0.9916 0.1290
vn -0.0030 0.9916 0.1296
vn -0.5739 0.0000 0.8189
vn 0.0019 -0.9946 -0.1042
vn 0.0000 -0.9946 -0.1039
vn -0.0060 -0.9941 -0.1079
vn -0.0006 -0.9946 -0.1040
vn -0.0029 0.9945 -0.1046
vn 0.0000 0.9946 -0.1039
vn 0.0059 0.9942 -0.1076
vn -0.0016 0.9946 -0.1041
vn 0.0019 0.9946 -0.1042
vn -0.6570 -0.0000 -0.7539
vn 0.0000 -1.0000 -0.0000
vn 0.0000 1.0000 0.0000
vn -1.0000 0.0000 0.0000
vn 0.0000 -0.8660 -0.5000
vn 0.0046 -0.8666 -0.4991
vn -0.0010 -0.8660 -0.5000
vn 0.0099 -0.8702 -0.4926
vn 0.0000 0.0000 -1.0000
vn 0.0010 0.8660 -0.5000
vn -0.0000 0.8660 -0.5000
vn -0.0099 0.8702 -0.4926
vn -0.0046 0.8666 -0.4991
vn 0.0001 0.8660 0.5000
vn -0.0000 0.8660 0.5000
vn -0.0012 0.8655 0.5009
vn -0.0005 0.8660 0.5001
vn 0.0000 -0.0000 1.0000
vn 0.0000 -0.8660 0.5000
vn 0.0005 -0.8660 0.5001
vn -0.0001 -0.8660 0.5000
vn 0.0012 -0.8655 0.5009
vn 0.3630 0.8069 -0.4660
vn 0.3630 0.8069 0.4659
vn 0.3630 -0.0000 0.9318
vn 0.3630 -0.8069 0.4659
vn 0.3630 -0.8069 -0.4660
vn 0.3629 0.0000 -0.9318
s 1
f 46/1/1 77/2/2 53/3/2
f 52/4/3 55/5/2 44/6/4
f 78/7/5 87/8/5 54/9/5
f 84/10/6 105/11/7 56/12/8
f 4/13/9 3/14/10 88/15/11
f 104/16/12 43/17/12 57/18/12
f 48/19/13 124/20/14 112/21/15
f 114/22/14 102/23/14 51/24/16
f 100/25/5 113/26/5 80/27/5
f 81/28/17 9/29/18 125/30/19
f 126/31/20 98/32/18 82/33/21
f 97/34/22 8/35/22 49/36/22
f 101/37/23 76/38/23 45/39/23
f 42/40/23 47/41/23 103/42/23
f 79/43/5 86/44/5 75/45/5
f 2/46/5 10/47/5 83/48/5
f 96/49/24 106/50/24 85/51/24
f 5/52/24 11/53/24 12/54/24
f 50/55/25 1/56/25 107/57/25
f 6/58/25 99/59/25 7/60/25
f 67/61/26 72/62/26 123/63/27
f 121/64/28 59/65/26 71/66/29
f 73/67/30 34/68/30 109/69/30
f 110/70/30 120/71/30 14/72/30
f 33/73/31 90/74/32 38/75/33
f 40/76/32 108/77/32 37/78/34
f 89/79/35 115/80/36 92/81/37
f 95/82/36 41/83/36 19/84/38
f 116/85/39 26/86/39 29/87/39
f 32/88/39 94/89/39 21/90/39
f 27/91/40 68/92/40 60/93/41
f 58/94/42 30/95/40 28/96/43
f 118/97/25 91/98/25 36/99/25
f 35/100/25 74/101/25 70/102/25
f 117/103/25 17/104/25 69/105/25
f 23/106/25 119/107/25 13/108/25
f 62/109/44 111/110/44 39/111/44
f 93/112/45 64/113/45 20/114/45
f 22/115/46 31/116/46 63/117/46
f 24/118/47 61/119/47 66/120/47
f 16/121/48 122/122/48 65/123/48
f 25/124/49 15/125/49 18/126/49
