# Blender v2.79 (sub 0) OBJ File: ''
# www.blender.org
o Box002
v -0.026000 0.121000 0.043000
v 0.059000 0.121000 0.043000
v 0.059000 0.125000 0.072000
v 0.015000 0.125000 0.072000
v 0.059000 0.128000 0.043000
v -0.026000 0.128000 0.043000
v -0.026000 0.121000 -0.043000
v 0.015000 0.125000 -0.079000
v 0.059000 0.125000 -0.079000
v 0.059000 0.121000 -0.043000
v 0.059000 0.128000 -0.043000
v -0.026000 0.128000 -0.043000
v 0.024000 0.000000 -0.015000
v 0.024000 -0.000000 0.012000
v 0.001000 -0.000000 0.012000
v 0.001000 0.000000 -0.015000
v 0.024000 0.081000 -0.015000
v 0.001000 0.081000 -0.015000
v 0.001000 0.081000 0.012000
v 0.024000 0.081000 0.012000
v 0.024000 0.068000 0.012000
v 0.001000 0.068000 0.012000
v 0.024000 0.068000 -0.015000
v 0.001000 0.068000 -0.015000
v 0.135000 0.081000 -0.015000
v 0.135000 0.081000 0.012000
v 0.135000 0.068000 0.012000
v 0.135000 0.068000 -0.015000
v -0.109000 0.081000 0.012000
v -0.109000 0.081000 -0.015000
v -0.109000 0.068000 -0.015000
v -0.109000 0.068000 0.012000
v 0.147000 0.102000 -0.040000
v 0.147000 0.080000 -0.001000
v -0.141000 0.080000 -0.001000
v -0.141000 0.102000 -0.040000
v 0.147000 0.147000 -0.040000
v -0.141000 0.147000 -0.040000
v 0.147000 0.169000 -0.001000
v -0.141000 0.169000 -0.001000
v 0.147000 0.147000 0.037000
v -0.141000 0.147000 0.037000
v 0.147000 0.102000 0.037000
v -0.141000 0.102000 0.037000
v 0.193000 0.119000 0.008000
v 0.193000 0.113000 -0.001000
v 0.193000 0.119000 -0.011000
v 0.193000 0.130000 -0.011000
v 0.193000 0.136000 -0.001000
v 0.193000 0.130000 0.008000
v 0.229000 0.117000 -0.014000
v 0.229000 0.110000 -0.001000
v 0.229000 0.132000 -0.014000
v 0.229000 0.139000 -0.001000
v 0.229000 0.132000 0.011000
v 0.229000 0.117000 0.011000
v 0.229000 0.117000 -0.014000
v 0.229000 0.117000 -0.014000
v 0.229000 0.117000 -0.014000
v 0.229000 0.117000 -0.014000
v 0.229000 0.117000 -0.014000
v 0.229000 0.132000 -0.014000
v 0.229000 0.132000 -0.014000
v 0.229000 0.132000 -0.014000
v 0.229000 0.132000 -0.014000
v 0.229000 0.132000 -0.014000
v 0.001000 0.081000 0.012000
v 0.001000 0.081000 0.012000
v 0.001000 0.081000 0.012000
v 0.001000 0.081000 0.012000
v 0.001000 0.081000 0.012000
v -0.109000 0.081000 -0.015000
v -0.109000 0.081000 -0.015000
v -0.109000 0.081000 -0.015000
v 0.135000 0.081000 0.012000
v 0.135000 0.081000 0.012000
v 0.135000 0.081000 0.012000
v 0.135000 0.068000 0.012000
v 0.135000 0.068000 0.012000
v 0.135000 0.068000 0.012000
v 0.135000 0.068000 0.012000
v 0.024000 0.000000 -0.015000
v 0.024000 0.000000 -0.015000
v 0.024000 0.000000 -0.015000
v 0.024000 0.000000 -0.015000
v 0.024000 -0.000000 0.012000
v 0.024000 -0.000000 0.012000
v 0.024000 -0.000000 0.012000
v 0.193000 0.130000 -0.011000
v 0.193000 0.130000 -0.011000
v 0.193000 0.130000 -0.011000
v 0.135000 0.081000 -0.015000
v 0.135000 0.081000 -0.015000
v 0.135000 0.081000 -0.015000
v 0.135000 0.081000 -0.015000
v 0.193000 0.136000 -0.001000
v 0.193000 0.136000 -0.001000
v 0.193000 0.136000 -0.001000
v 0.193000 0.136000 -0.001000
v 0.193000 0.136000 -0.001000
v 0.193000 0.119000 -0.011000
v 0.193000 0.119000 -0.011000
v 0.193000 0.119000 -0.011000
v 0.193000 0.119000 -0.011000
v 0.193000 0.119000 -0.011000
v 0.001000 -0.000000 0.012000
v 0.001000 -0.000000 0.012000
v 0.001000 -0.000000 0.012000
v 0.001000 -0.000000 0.012000
v 0.001000 0.000000 -0.015000
v 0.001000 0.000000 -0.015000
v 0.001000 0.000000 -0.015000
v 0.024000 0.068000 -0.015000
v 0.024000 0.068000 -0.015000
v 0.024000 0.068000 -0.015000
v 0.024000 0.068000 -0.015000
v 0.024000 0.068000 -0.015000
v 0.024000 0.068000 -0.015000
v 0.024000 0.068000 -0.015000
v 0.135000 0.068000 -0.015000
v 0.135000 0.068000 -0.015000
v 0.135000 0.068000 -0.015000
v 0.001000 0.068000 0.012000
v 0.001000 0.068000 0.012000
v 0.001000 0.068000 0.012000
v 0.001000 0.068000 0.012000
v 0.001000 0.068000 0.012000
v 0.001000 0.068000 0.012000
v 0.001000 0.068000 0.012000
v 0.001000 0.068000 -0.015000
v 0.001000 0.068000 -0.015000
v 0.001000 0.068000 -0.015000
v 0.001000 0.068000 -0.015000
v 0.001000 0.068000 -0.015000
v 0.001000 0.068000 -0.015000
v -0.141000 0.080000 -0.001000
v -0.141000 0.080000 -0.001000
v -0.141000 0.080000 -0.001000
v -0.141000 0.080000 -0.001000
v -0.141000 0.080000 -0.001000
v -0.141000 0.147000 -0.040000
v -0.141000 0.147000 -0.040000
v -0.141000 0.147000 -0.040000
v -0.141000 0.147000 -0.040000
v -0.141000 0.147000 -0.040000
v 0.147000 0.147000 -0.040000
v 0.147000 0.147000 -0.040000
v 0.147000 0.147000 -0.040000
v 0.147000 0.147000 -0.040000
v 0.147000 0.147000 -0.040000
v 0.024000 0.081000 -0.015000
v 0.024000 0.081000 -0.015000
v 0.024000 0.081000 -0.015000
v 0.024000 0.081000 -0.015000
v 0.024000 0.081000 -0.015000
v -0.109000 0.068000 -0.015000
v -0.109000 0.068000 -0.015000
v -0.109000 0.068000 -0.015000
v -0.109000 0.068000 -0.015000
v 0.147000 0.102000 -0.040000
v 0.147000 0.102000 -0.040000
v 0.147000 0.102000 -0.040000
v 0.147000 0.102000 -0.040000
v 0.147000 0.102000 -0.040000
v 0.059000 0.121000 0.043000
v 0.059000 0.121000 0.043000
v 0.059000 0.121000 0.043000
v 0.059000 0.121000 0.043000
v 0.059000 0.121000 -0.043000
v 0.059000 0.121000 -0.043000
v 0.059000 0.121000 -0.043000
v 0.059000 0.121000 -0.043000
v -0.141000 0.147000 0.037000
v -0.141000 0.147000 0.037000
v -0.141000 0.147000 0.037000
v -0.141000 0.147000 0.037000
v -0.141000 0.147000 0.037000
v -0.141000 0.102000 -0.040000
v -0.141000 0.102000 -0.040000
v -0.141000 0.102000 -0.040000
v -0.109000 0.081000 0.012000
v -0.109000 0.081000 0.012000
v -0.109000 0.081000 0.012000
v -0.109000 0.081000 0.012000
v 0.024000 0.068000 0.012000
v 0.024000 0.068000 0.012000
v 0.024000 0.068000 0.012000
v 0.024000 0.068000 0.012000
v 0.024000 0.068000 0.012000
v 0.024000 0.068000 0.012000
v 0.147000 0.169000 -0.001000
v 0.147000 0.169000 -0.001000
v 0.147000 0.169000 -0.001000
v 0.147000 0.169000 -0.001000
v 0.147000 0.169000 -0.001000
v -0.141000 0.169000 -0.001000
v -0.141000 0.169000 -0.001000
v -0.141000 0.169000 -0.001000
v -0.109000 0.068000 0.012000
v -0.109000 0.068000 0.012000
v -0.109000 0.068000 0.012000
v 0.193000 0.119000 0.008000
v 0.193000 0.119000 0.008000
v 0.193000 0.119000 0.008000
v 0.193000 0.119000 0.008000
v 0.193000 0.119000 0.008000
v 0.229000 0.132000 0.011000
v 0.229000 0.132000 0.011000
v 0.229000 0.132000 0.011000
v 0.229000 0.132000 0.011000
v 0.229000 0.132000 0.011000
v 0.147000 0.080000 -0.001000
v 0.147000 0.080000 -0.001000
v 0.147000 0.080000 -0.001000
v 0.147000 0.080000 -0.001000
v 0.147000 0.080000 -0.001000
v -0.026000 0.121000 -0.043000
v -0.026000 0.121000 -0.043000
v -0.026000 0.121000 -0.043000
v -0.026000 0.121000 -0.043000
v -0.026000 0.121000 -0.043000
v -0.026000 0.128000 -0.043000
v -0.026000 0.128000 -0.043000
v -0.026000 0.128000 -0.043000
v -0.026000 0.128000 -0.043000
v -0.026000 0.121000 0.043000
v -0.026000 0.121000 0.043000
v -0.026000 0.121000 0.043000
v -0.026000 0.121000 0.043000
v -0.026000 0.121000 0.043000
v 0.015000 0.125000 -0.079000
v 0.015000 0.125000 -0.079000
v 0.015000 0.125000 -0.079000
v 0.001000 0.081000 -0.015000
v 0.001000 0.081000 -0.015000
v 0.001000 0.081000 -0.015000
v 0.001000 0.081000 -0.015000
v 0.001000 0.081000 -0.015000
v 0.059000 0.128000 0.043000
v 0.059000 0.128000 0.043000
v 0.059000 0.128000 0.043000
v 0.059000 0.128000 0.043000
v 0.059000 0.128000 0.043000
v -0.026000 0.128000 0.043000
v -0.026000 0.128000 0.043000
v -0.026000 0.128000 0.043000
v -0.026000 0.128000 0.043000
v 0.147000 0.102000 0.037000
v 0.147000 0.102000 0.037000
v 0.147000 0.102000 0.037000
v 0.147000 0.102000 0.037000
v 0.147000 0.102000 0.037000
v 0.147000 0.147000 0.037000
v 0.147000 0.147000 0.037000
v 0.147000 0.147000 0.037000
v 0.147000 0.147000 0.037000
v 0.147000 0.147000 0.037000
v 0.024000 0.081000 0.012000
v 0.024000 0.081000 0.012000
v 0.024000 0.081000 0.012000
v 0.024000 0.081000 0.012000
v 0.024000 0.081000 0.012000
v 0.193000 0.113000 -0.001000
v 0.193000 0.113000 -0.001000
v 0.193000 0.113000 -0.001000
v 0.015000 0.125000 0.072000
v 0.015000 0.125000 0.072000
v 0.015000 0.125000 0.072000
v 0.059000 0.125000 0.072000
v 0.059000 0.125000 0.072000
v 0.059000 0.125000 0.072000
v 0.059000 0.128000 -0.043000
v 0.059000 0.128000 -0.043000
v 0.059000 0.128000 -0.043000
v 0.059000 0.128000 -0.043000
v 0.059000 0.128000 -0.043000
v 0.229000 0.139000 -0.001000
v 0.229000 0.139000 -0.001000
v 0.229000 0.139000 -0.001000
v 0.229000 0.139000 -0.001000
v 0.229000 0.139000 -0.001000
v 0.059000 0.125000 -0.079000
v 0.059000 0.125000 -0.079000
v 0.059000 0.125000 -0.079000
v 0.193000 0.130000 0.008000
v 0.193000 0.130000 0.008000
v 0.193000 0.130000 0.008000
v 0.229000 0.117000 0.011000
v 0.229000 0.117000 0.011000
v 0.229000 0.117000 0.011000
v 0.229000 0.117000 0.011000
v 0.229000 0.117000 0.011000
v 0.229000 0.110000 -0.001000
v 0.229000 0.110000 -0.001000
v 0.229000 0.110000 -0.001000
v 0.229000 0.110000 -0.001000
v 0.229000 0.110000 -0.001000
v -0.141000 0.102000 0.037000
v -0.141000 0.102000 0.037000
v -0.141000 0.102000 0.037000
vt 0.060000 0.725000
vt 0.060000 0.834000
vt 0.023000 0.834000
vt 0.023000 0.834000
vt 0.023000 0.778000
vt 0.060000 0.725000
vt 0.060000 0.584000
vt 0.060000 0.593000
vt 0.023000 0.589000
vt 0.277000 0.725000
vt 0.277000 0.834000
vt 0.240000 0.781000
vt 0.240000 0.781000
vt 0.240000 0.725000
vt 0.277000 0.725000
vt 0.350000 0.656000
vt 0.350000 0.645000
vt 0.408000 0.650000
vt 0.170000 0.725000
vt 0.216000 0.778000
vt 0.216000 0.834000
vt 0.216000 0.834000
vt 0.170000 0.834000
vt 0.170000 0.725000
vt 0.169000 0.584000
vt 0.216000 0.589000
vt 0.169000 0.593000
vt 0.386000 0.725000
vt 0.433000 0.725000
vt 0.433000 0.781000
vt 0.433000 0.781000
vt 0.386000 0.834000
vt 0.386000 0.725000
vt 0.349000 0.614000
vt 0.410000 0.619000
vt 0.349000 0.625000
vt 0.170000 0.834000
vt 0.060000 0.834000
vt 0.060000 0.725000
vt 0.060000 0.725000
vt 0.170000 0.725000
vt 0.170000 0.834000
vt 0.169000 0.593000
vt 0.060000 0.593000
vt 0.060000 0.584000
vt 0.060000 0.584000
vt 0.169000 0.584000
vt 0.169000 0.593000
vt 0.386000 0.834000
vt 0.277000 0.834000
vt 0.277000 0.725000
vt 0.277000 0.725000
vt 0.386000 0.725000
vt 0.386000 0.834000
vt 0.462000 0.703000
vt 0.353000 0.703000
vt 0.353000 0.694000
vt 0.353000 0.694000
vt 0.462000 0.694000
vt 0.462000 0.703000
vt 0.380000 0.114000
vt 0.347000 0.114000
vt 0.347000 0.085000
vt 0.347000 0.085000
vt 0.380000 0.085000
vt 0.380000 0.114000
vt 0.165000 0.670000
vt 0.195000 0.670000
vt 0.195000 0.703000
vt 0.195000 0.703000
vt 0.165000 0.703000
vt 0.165000 0.670000
vt 0.293000 0.172000
vt 0.293000 0.143000
vt 0.380000 0.143000
vt 0.380000 0.143000
vt 0.380000 0.172000
vt 0.293000 0.172000
vt 0.380000 0.194000
vt 0.380000 0.227000
vt 0.293000 0.227000
vt 0.293000 0.227000
vt 0.293000 0.194000
vt 0.380000 0.194000
vt 0.516000 0.022000
vt 0.516000 0.051000
vt 0.430000 0.051000
vt 0.430000 0.051000
vt 0.430000 0.022000
vt 0.516000 0.022000
vt 0.430000 0.106000
vt 0.430000 0.073000
vt 0.516000 0.073000
vt 0.516000 0.073000
vt 0.516000 0.106000
vt 0.430000 0.106000
vt 0.195000 0.624000
vt 0.165000 0.624000
vt 0.165000 0.608000
vt 0.165000 0.608000
vt 0.195000 0.608000
vt 0.195000 0.624000
vt 0.055000 0.529000
vt 0.022000 0.529000
vt 0.022000 0.513000
vt 0.022000 0.513000
vt 0.055000 0.513000
vt 0.055000 0.529000
vt 0.165000 0.639000
vt 0.195000 0.639000
vt 0.195000 0.655000
vt 0.195000 0.655000
vt 0.165000 0.655000
vt 0.165000 0.639000
vt 0.456000 0.818000
vt 0.489000 0.818000
vt 0.489000 0.835000
vt 0.489000 0.835000
vt 0.456000 0.835000
vt 0.456000 0.818000
vt 0.491000 0.527000
vt 0.491000 0.560000
vt 0.350000 0.560000
vt 0.350000 0.560000
vt 0.350000 0.527000
vt 0.491000 0.527000
vt 0.024000 0.624000
vt 0.024000 0.608000
vt 0.165000 0.608000
vt 0.165000 0.608000
vt 0.165000 0.624000
vt 0.024000 0.624000
vt 0.336000 0.670000
vt 0.336000 0.703000
vt 0.195000 0.703000
vt 0.195000 0.703000
vt 0.195000 0.670000
vt 0.336000 0.670000
vt 0.024000 0.655000
vt 0.024000 0.639000
vt 0.165000 0.639000
vt 0.165000 0.639000
vt 0.165000 0.655000
vt 0.024000 0.655000
vt 0.350000 0.600000
vt 0.350000 0.566000
vt 0.491000 0.566000
vt 0.491000 0.566000
vt 0.491000 0.600000
vt 0.350000 0.600000
vt 0.336000 0.639000
vt 0.336000 0.655000
vt 0.195000 0.655000
vt 0.195000 0.655000
vt 0.195000 0.639000
vt 0.336000 0.639000
vt 0.024000 0.703000
vt 0.024000 0.670000
vt 0.165000 0.670000
vt 0.165000 0.670000
vt 0.165000 0.703000
vt 0.024000 0.703000
vt 0.336000 0.608000
vt 0.336000 0.624000
vt 0.195000 0.624000
vt 0.195000 0.624000
vt 0.195000 0.608000
vt 0.336000 0.608000
vt 0.418000 0.245000
vt 0.418000 0.298000
vt 0.022000 0.298000
vt 0.022000 0.298000
vt 0.022000 0.245000
vt 0.418000 0.245000
vt 0.394000 0.921000
vt 0.394000 0.978000
vt 0.025000 0.978000
vt 0.025000 0.978000
vt 0.025000 0.921000
vt 0.394000 0.921000
vt 0.135000 0.419000
vt 0.135000 0.366000
vt 0.531000 0.366000
vt 0.531000 0.366000
vt 0.531000 0.419000
vt 0.135000 0.419000
vt 0.135000 0.472000
vt 0.135000 0.419000
vt 0.531000 0.419000
vt 0.531000 0.419000
vt 0.531000 0.472000
vt 0.135000 0.472000
vt 0.394000 0.849000
vt 0.394000 0.906000
vt 0.025000 0.906000
vt 0.025000 0.906000
vt 0.025000 0.849000
vt 0.394000 0.849000
vt 0.418000 0.298000
vt 0.418000 0.351000
vt 0.022000 0.351000
vt 0.022000 0.351000
vt 0.022000 0.298000
vt 0.418000 0.298000
vt 0.431000 0.128000
vt 0.487000 0.128000
vt 0.516000 0.178000
vt 0.516000 0.178000
vt 0.487000 0.227000
vt 0.431000 0.227000
vt 0.431000 0.128000
vt 0.516000 0.178000
vt 0.431000 0.227000
vt 0.431000 0.128000
vt 0.431000 0.227000
vt 0.402000 0.178000
vt 0.358000 0.056000
vt 0.351000 0.044000
vt 0.358000 0.031000
vt 0.358000 0.031000
vt 0.373000 0.031000
vt 0.380000 0.044000
vt 0.358000 0.056000
vt 0.358000 0.031000
vt 0.380000 0.044000
vt 0.358000 0.056000
vt 0.380000 0.044000
vt 0.373000 0.056000
vt 0.531000 0.281000
vt 0.531000 0.298000
vt 0.418000 0.298000
vt 0.418000 0.298000
vt 0.418000 0.245000
vt 0.531000 0.281000
vt 0.499000 0.940000
vt 0.499000 0.959000
vt 0.394000 0.978000
vt 0.394000 0.978000
vt 0.394000 0.921000
vt 0.499000 0.940000
vt 0.022000 0.419000
vt 0.022000 0.402000
vt 0.135000 0.366000
vt 0.135000 0.366000
vt 0.135000 0.419000
vt 0.022000 0.419000
vt 0.022000 0.437000
vt 0.022000 0.419000
vt 0.135000 0.419000
vt 0.135000 0.419000
vt 0.135000 0.472000
vt 0.022000 0.437000
vt 0.499000 0.869000
vt 0.499000 0.887000
vt 0.394000 0.906000
vt 0.394000 0.906000
vt 0.394000 0.849000
vt 0.499000 0.869000
vt 0.531000 0.298000
vt 0.531000 0.316000
vt 0.418000 0.351000
vt 0.418000 0.351000
vt 0.418000 0.298000
vt 0.531000 0.298000
vt 0.273000 0.198000
vt 0.273000 0.211000
vt 0.223000 0.211000
vt 0.223000 0.211000
vt 0.223000 0.194000
vt 0.273000 0.198000
vt 0.083000 0.560000
vt 0.083000 0.546000
vt 0.129000 0.544000
vt 0.129000 0.544000
vt 0.129000 0.562000
vt 0.083000 0.560000
vt 0.157000 0.225000
vt 0.157000 0.211000
vt 0.203000 0.209000
vt 0.203000 0.209000
vt 0.203000 0.227000
vt 0.157000 0.225000
vt 0.218000 0.170000
vt 0.218000 0.155000
vt 0.264000 0.154000
vt 0.264000 0.154000
vt 0.264000 0.172000
vt 0.218000 0.170000
vt 0.022000 0.560000
vt 0.022000 0.546000
vt 0.068000 0.544000
vt 0.068000 0.544000
vt 0.068000 0.562000
vt 0.022000 0.560000
vt 0.273000 0.211000
vt 0.273000 0.225000
vt 0.223000 0.228000
vt 0.223000 0.228000
vt 0.223000 0.211000
vt 0.273000 0.211000
vn -0.0006 -0.9916 0.1290
vn -0.0000 -0.9917 0.1289
vn -0.0073 -0.9909 0.1341
vn 0.0018 -0.9916 0.1292
vn 1.0000 0.0000 0.0000
vn -0.0219 0.9929 0.1173
vn 0.0000 0.9917 0.1289
vn 0.0088 0.9918 0.1274
vn -0.0190 0.9925 0.1209
vn -0.5739 -0.0000 0.8189
vn 0.0019 -0.9946 -0.1042
vn 0.0000 -0.9946 -0.1039
vn -0.0060 -0.9941 -0.1079
vn 0.0000 -0.9946 -0.1040
vn -0.0006 -0.9946 -0.1040
vn 0.0000 0.9946 -0.1040
vn -0.0136 0.9950 -0.0990
vn 0.0083 0.9947 -0.1022
vn -0.0162 0.9952 -0.0963
vn -0.6570 0.0000 -0.7539
vn 0.0000 -1.0000 -0.0000
vn 0.0000 1.0000 0.0000
vn -1.0000 -0.0000 0.0000
vn 0.0000 -0.0000 1.0000
vn 0.0000 0.0000 -1.0000
vn -0.0010 -0.8660 -0.5000
vn 0.0000 -0.8660 -0.5000
vn 0.0099 -0.8702 -0.4926
vn 0.0046 -0.8666 -0.4991
vn 0.0000 0.8660 -0.5000
vn -0.0046 0.8666 -0.4991
vn 0.0010 0.8660 -0.5000
vn -0.0099 0.8702 -0.4926
vn 0.0000 0.8660 0.5000
vn -0.0000 0.8660 0.5001
vn -0.0005 0.8660 0.5001
vn 0.0001 0.8660 0.5000
vn -0.0011 0.8655 0.5009
vn -0.0001 -0.8660 0.5000
vn 0.0000 -0.8660 0.5000
vn 0.0012 -0.8655 0.5009
vn 0.0005 -0.8660 0.5001
vn 0.2951 -0.8316 -0.4704
vn 0.3009 -0.8258 -0.4769
vn 0.3171 -0.8331 -0.4533
vn 0.3002 -0.8250 -0.4788
vn 0.3039 -0.8183 -0.4879
vn 0.3011 -0.0006 -0.9536
vn 0.3009 0.0000 -0.9537
vn 0.3014 0.0010 -0.9535
vn 0.3010 -0.0001 -0.9536
vn 0.3009 0.0002 -0.9536
vn 0.2993 0.8290 -0.4724
vn 0.3009 0.8258 -0.4769
vn 0.2904 0.8380 -0.4621
vn 0.3027 0.8242 -0.4786
vn 0.2837 0.8303 -0.4798
vn 0.3008 0.8255 0.4776
vn 0.3009 0.8258 0.4769
vn 0.2995 0.8243 0.4805
vn 0.3012 0.8260 0.4765
vn 0.3009 0.8259 0.4769
vn 0.2992 0.8262 0.4773
vn 0.3010 0.0006 0.9536
vn 0.3009 -0.0000 0.9536
vn 0.3014 -0.0010 0.9535
vn 0.3009 0.0001 0.9536
vn 0.3009 -0.0000 0.9537
vn 0.3009 -0.0002 0.9537
vn 0.3001 -0.8252 0.4786
vn 0.3009 -0.8258 0.4769
vn 0.3035 -0.8238 0.4787
vn 0.3008 -0.8260 0.4766
vn 0.3009 -0.8259 0.4769
vn 0.3010 -0.8271 0.4746
vn 0.0712 0.8581 0.5085
vn 0.0740 0.8636 0.4988
vn 0.0667 0.8438 0.5325
vn 0.0730 0.8698 0.4880
vn 0.0740 0.8636 0.4987
vn 0.0844 0.8792 0.4688
vn 0.0741 0.0012 0.9973
vn 0.0740 -0.0000 0.9973
vn 0.0740 -0.0001 0.9973
vn 0.0744 0.0026 0.9972
vn 0.0768 -0.0066 0.9970
vn 0.0776 -0.8570 0.5094
vn 0.0740 -0.8636 0.4987
vn 0.0706 -0.8519 0.5188
vn 0.0711 -0.8683 0.4909
vn 0.0700 -0.8844 0.4615
vn 0.0816 -0.8551 -0.5120
vn 0.0740 -0.8636 -0.4987
vn 0.0502 -0.8332 -0.5506
vn 0.0798 -0.8694 -0.4877
vn 0.0740 -0.8636 -0.4988
vn 0.0699 -0.8839 -0.4625
vn 0.0741 -0.0012 -0.9973
vn 0.0740 0.0000 -0.9973
vn 0.0740 0.0001 -0.9973
vn 0.0744 -0.0026 -0.9972
vn 0.0768 0.0066 -0.9970
vn 0.0775 0.8564 -0.5104
vn 0.0740 0.8636 -0.4988
vn 0.0965 0.8364 -0.5395
vn 0.0671 0.8693 -0.4897
vn 0.1130 0.8739 -0.4727
s 1
f 229/1/1 166/2/2 271/3/2
f 269/4/3 267/5/2 228/6/4
f 168/7/5 242/8/5 270/9/5
f 239/10/6 244/11/7 266/12/8
f 4/13/9 3/14/7 5/15/7
f 246/16/10 227/17/10 268/18/10
f 219/19/11 232/20/12 283/21/13
f 284/22/14 170/23/14 218/24/15
f 171/25/5 282/26/5 272/27/5
f 274/28/16 9/29/16 233/30/17
f 231/31/18 223/32/16 275/33/19
f 222/34/20 8/35/20 217/36/20
f 169/37/21 165/38/21 226/39/21
f 230/40/21 221/41/21 10/42/21
f 273/43/5 241/44/5 167/45/5
f 2/46/5 172/47/5 276/48/5
f 224/49/22 245/50/22 240/51/22
f 243/52/22 11/53/22 12/54/22
f 220/55/23 1/56/23 247/57/23
f 6/58/23 225/59/23 7/60/23
f 82/61/21 86/62/21 108/63/21
f 106/64/21 110/65/21 85/66/21
f 153/67/22 236/68/22 71/69/22
f 68/70/22 259/71/22 152/72/22
f 185/73/24 124/74/24 107/75/24
f 109/76/24 88/77/24 187/78/24
f 115/79/5 188/80/5 87/81/5
f 14/82/5 83/83/5 116/84/5
f 131/85/25 114/86/25 84/87/25
f 13/88/25 112/89/25 134/90/25
f 123/91/23 130/92/23 111/93/23
f 16/94/23 15/95/23 129/96/23
f 258/97/24 69/98/24 126/99/24
f 22/100/24 189/101/24 261/102/24
f 92/103/5 75/104/5 78/105/5
f 80/106/5 122/107/5 93/108/5
f 237/109/25 155/110/25 118/111/25
f 23/112/25 132/113/25 234/114/25
f 181/115/23 73/116/23 156/117/23
f 159/118/23 201/119/23 183/120/23
f 200/121/21 158/122/21 133/123/21
f 135/124/21 125/125/21 199/126/21
f 184/127/24 32/128/24 127/129/24
f 128/130/24 70/131/24 182/132/24
f 72/133/22 29/134/22 67/135/22
f 19/136/22 238/137/22 74/138/22
f 157/139/25 30/140/25 235/141/25
f 18/142/25 24/143/25 31/144/25
f 121/145/21 81/146/21 186/147/21
f 21/148/21 113/149/21 120/150/21
f 95/151/25 28/152/25 117/153/25
f 119/154/25 154/155/25 94/156/25
f 76/157/22 25/158/22 151/159/22
f 17/160/22 262/161/22 77/162/22
f 79/163/24 26/164/24 260/165/24
f 20/166/24 190/167/24 27/168/24
f 163/169/26 213/170/27 139/171/28
f 138/172/27 179/173/27 162/174/29
f 149/175/25 164/176/25 180/177/25
f 178/178/25 142/179/25 146/180/25
f 193/181/30 148/182/30 143/183/31
f 145/184/32 196/185/30 191/186/33
f 255/187/34 194/188/35 197/189/36
f 198/190/37 176/191/35 257/192/38
f 248/193/24 253/194/24 174/195/24
f 175/196/24 298/197/24 250/198/24
f 214/199/39 249/200/40 300/201/41
f 299/202/40 140/203/40 216/204/42
f 141/205/23 36/206/23 136/207/23
f 137/208/23 44/209/23 173/210/23
f 144/211/23 35/212/23 177/213/23
f 38/214/23 42/215/23 40/216/23
f 204/217/5 263/218/5 102/219/5
f 103/220/5 91/221/5 98/222/5
f 203/223/5 47/224/5 97/225/5
f 205/226/5 100/227/5 285/228/5
f 60/229/43 294/230/44 212/231/45
f 215/232/46 161/233/44 61/234/47
f 62/235/48 57/236/49 160/237/50
f 33/238/51 150/239/49 66/240/52
f 278/241/53 65/242/54 147/243/55
f 37/244/56 192/245/54 277/246/57
f 210/247/58 281/248/59 195/249/60
f 39/250/61 254/251/62 208/252/63
f 288/253/64 209/254/65 256/255/66
f 41/256/67 252/257/68 292/258/69
f 293/259/70 289/260/71 251/261/72
f 43/262/73 34/263/74 297/264/75
f 104/265/76 265/266/77 295/267/78
f 296/268/79 59/269/80 101/270/81
f 89/271/82 105/272/83 58/273/84
f 51/274/85 64/275/83 90/276/86
f 96/277/87 48/278/88 63/279/89
f 53/280/90 279/281/88 99/282/91
f 286/283/92 49/284/93 280/285/94
f 54/286/95 211/287/96 287/288/97
f 202/289/98 50/290/99 207/291/100
f 55/292/101 291/293/99 206/294/102
f 264/295/103 45/296/104 290/297/105
f 56/298/106 52/299/104 46/300/107
