# Blender v2.79 (sub 0) OBJ File: ''
# www.blender.org
o Box006
v 0.182000 -0.286000 -0.122000
v 0.031000 -0.286000 -0.064000
v -0.017000 0.109000 -0.002000
v 0.172000 -0.286000 -0.002000
v 0.237000 -0.286000 0.096000
v 0.054000 -0.286000 0.129000
v -0.083000 -0.286000 -0.005000
v -0.100000 -0.286000 0.050000
v -0.102000 -0.286000 0.184000
v 0.172000 -0.286000 -0.002000
v 0.172000 -0.286000 -0.002000
v 0.172000 -0.286000 -0.002000
v 0.172000 -0.286000 -0.002000
v 0.054000 -0.286000 0.129000
v 0.054000 -0.286000 0.129000
v 0.054000 -0.286000 0.129000
v 0.054000 -0.286000 0.129000
v 0.054000 -0.286000 0.129000
v -0.100000 -0.286000 0.050000
v -0.100000 -0.286000 0.050000
v -0.100000 -0.286000 0.050000
v -0.100000 -0.286000 0.050000
v -0.102000 -0.286000 0.184000
v -0.102000 -0.286000 0.184000
v -0.017000 0.109000 -0.002000
v -0.017000 0.109000 -0.002000
v -0.017000 0.109000 -0.002000
v -0.017000 0.109000 -0.002000
v -0.017000 0.109000 -0.002000
v -0.017000 0.109000 -0.002000
v -0.017000 0.109000 -0.002000
v -0.083000 -0.286000 -0.005000
v -0.083000 -0.286000 -0.005000
v 0.237000 -0.286000 0.096000
v 0.237000 -0.286000 0.096000
v 0.182000 -0.286000 -0.122000
v 0.182000 -0.286000 -0.122000
v 0.031000 -0.286000 -0.064000
v 0.031000 -0.286000 -0.064000
v 0.031000 -0.286000 -0.064000
v 0.031000 -0.286000 -0.064000
v 0.031000 -0.286000 -0.064000
vt 1.000000 1.000000
vt 1.000000 1.000000
vt 1.000000 1.000000
vt 1.000000 1.000000
vt 1.000000 1.000000
vt 1.000000 1.000000
vt 1.000000 1.000000
vt 1.000000 1.000000
vt 1.000000 1.000000
vt 1.000000 1.000000
vt 1.000000 1.000000
vt 1.000000 1.000000
vt 1.000000 1.000000
vt 1.000000 1.000000
vt 1.000000 1.000000
vt 1.000000 1.000000
vt 1.000000 1.000000
vt 1.000000 1.000000
vt 1.000000 1.000000
vt 1.000000 1.000000
vt 1.000000 1.000000
vt 1.000000 1.000000
vt 1.000000 1.000000
vt 1.000000 1.000000
vt 1.000000 1.000000
vt 1.000000 1.000000
vt 1.000000 1.000000
vt 1.000000 1.000000
vt 1.000000 1.000000
vt 1.000000 1.000000
vt 1.000000 1.000000
vt 1.000000 1.000000
vt 1.000000 1.000000
vt 1.000000 1.000000
vt 1.000000 1.000000
vt 1.000000 1.000000
vt 1.000000 1.000000
vt 1.000000 1.000000
vt 1.000000 1.000000
vt 1.000000 1.000000
vt 1.000000 1.000000
vt 1.000000 1.000000
vn -0.4105 0.1332 -0.9021
vn -0.4105 0.1331 -0.9021
vn 0.8609 0.5020 0.0830
vn 0.7719 0.4589 -0.4399
vn 0.7719 0.4589 -0.4400
vn 0.2031 0.4343 0.8776
vn -0.5095 0.1071 -0.8538
vn -0.9402 0.1911 -0.2821
vn -0.9402 0.1911 -0.2820
vn -0.9688 0.2449 -0.0370
vn 0.3462 0.4422 0.8274
vn 0.0000 -1.0000 0.0000
s 1
f 37/1/1 39/2/2 31/3/1
f 36/4/3 30/5/3 11/6/3
f 27/7/4 34/8/5 12/9/4
f 29/10/6 15/11/6 35/12/6
f 32/13/7 26/14/7 42/15/7
f 33/16/8 20/17/9 28/18/8
f 25/19/10 19/20/10 23/21/10
f 3/22/11 24/23/11 17/24/11
f 22/25/12 7/26/12 41/27/12
f 38/28/12 1/29/12 13/30/12
f 10/31/12 5/32/12 14/33/12
f 40/34/12 4/35/12 18/36/12
f 21/37/12 2/38/12 16/39/12
f 8/40/12 6/41/12 9/42/12
