# Blender v2.79 (sub 0) OBJ File: ''
# www.blender.org
o Box002
v 0.167000 -0.286000 0.061000
v 0.034000 0.086000 -0.004000
v 0.020000 -0.286000 0.084000
v 0.143000 -0.286000 -0.008000
v 0.151000 -0.286000 -0.166000
v -0.019000 -0.286000 -0.133000
v -0.194000 -0.286000 0.126000
v -0.158000 -0.286000 -0.005000
v -0.248000 -0.286000 -0.101000
v 0.143000 -0.286000 -0.008000
v 0.143000 -0.286000 -0.008000
v 0.143000 -0.286000 -0.008000
v 0.143000 -0.286000 -0.008000
v -0.019000 -0.286000 -0.133000
v -0.019000 -0.286000 -0.133000
v -0.019000 -0.286000 -0.133000
v -0.019000 -0.286000 -0.133000
v -0.019000 -0.286000 -0.133000
v -0.158000 -0.286000 -0.005000
v -0.158000 -0.286000 -0.005000
v -0.158000 -0.286000 -0.005000
v -0.158000 -0.286000 -0.005000
v -0.248000 -0.286000 -0.101000
v -0.248000 -0.286000 -0.101000
v 0.020000 -0.286000 0.084000
v 0.020000 -0.286000 0.084000
v 0.020000 -0.286000 0.084000
v 0.020000 -0.286000 0.084000
v 0.020000 -0.286000 0.084000
v -0.194000 -0.286000 0.126000
v -0.194000 -0.286000 0.126000
v 0.151000 -0.286000 -0.166000
v 0.151000 -0.286000 -0.166000
v 0.167000 -0.286000 0.061000
v 0.167000 -0.286000 0.061000
v 0.034000 0.086000 -0.004000
v 0.034000 0.086000 -0.004000
v 0.034000 0.086000 -0.004000
v 0.034000 0.086000 -0.004000
v 0.034000 0.086000 -0.004000
v 0.034000 0.086000 -0.004000
v 0.034000 0.086000 -0.004000
vt 1.000000 1.000000
vt 1.000000 1.000000
vt 1.000000 1.000000
vt 1.000000 1.000000
vt 1.000000 1.000000
vt 1.000000 1.000000
vt 1.000000 1.000000
vt 1.000000 1.000000
vt 1.000000 1.000000
vt 1.000000 1.000000
vt 1.000000 1.000000
vt 1.000000 1.000000
vt 1.000000 1.000000
vt 1.000000 1.000000
vt 1.000000 1.000000
vt 1.000000 1.000000
vt 1.000000 1.000000
vt 1.000000 1.000000
vt 1.000000 1.000000
vt 1.000000 1.000000
vt 1.000000 1.000000
vt 1.000000 1.000000
vt 1.000000 1.000000
vt 1.000000 1.000000
vt 1.000000 1.000000
vt 1.000000 1.000000
vt 1.000000 1.000000
vt 1.000000 1.000000
vt 1.000000 1.000000
vt 1.000000 1.000000
vt 1.000000 1.000000
vt 1.000000 1.000000
vt 1.000000 1.000000
vt 1.000000 1.000000
vt 1.000000 1.000000
vt 1.000000 1.000000
vt 1.000000 1.000000
vt 1.000000 1.000000
vt 1.000000 1.000000
vt 1.000000 1.000000
vt 1.000000 1.000000
vt 1.000000 1.000000
vn 0.1086 0.2889 0.9512
vn 0.8883 0.3140 -0.3350
vn 0.8883 0.3141 -0.3350
vn 0.9420 0.3355 -0.0081
vn -0.1367 0.4350 -0.8900
vn 0.1406 0.2872 0.9475
vn -0.8301 0.5292 -0.1757
vn -0.6820 0.4052 0.6088
vn -0.0817 0.4293 -0.8995
vn -0.0817 0.4293 -0.8994
vn -0.0000 -1.0000 -0.0000
s 1
f 35/1/1 38/2/1 29/3/1
f 34/4/2 13/5/3 37/6/2
f 36/7/4 12/8/4 32/9/4
f 42/10/5 33/11/5 18/12/5
f 30/13/6 25/14/6 41/15/6
f 31/16/7 40/17/7 22/18/7
f 39/19/8 23/20/8 19/21/8
f 2/22/9 17/23/9 24/24/10
f 21/25/11 9/26/11 16/27/11
f 14/28/11 5/29/11 10/30/11
f 11/31/11 1/32/11 28/33/11
f 15/34/11 4/35/11 27/36/11
f 20/37/11 6/38/11 26/39/11
f 8/40/11 3/41/11 7/42/11
