v 10 10 10
vn 0.4082483053 0.4082483053 0.8164966106
v 10 10 -6.123233998e-16
vn 0.6666666865 0.6666666865 -0.3333333433
v 0 10 10
vn -0.6666666865 0.6666666865 0.3333333433
v 0 10 -6.123233998e-16
vn -0.4082483053 0.4082483053 -0.8164966106
v 0 6.123233998e-16 10
vn -0.4082483053 -0.4082483053 0.8164966106
v 0 0 0
vn -0.6666666865 -0.6666666865 -0.3333333433
v 10 6.123233998e-16 10
vn 0.6666666865 -0.6666666865 0.3333333433
v 10 0 0
vn 0.4082483053 -0.4082483053 -0.8164966106
# mm_gid 0
g mmGroup0
f 1//1 2//2 3//3 
f 3//3 2//2 4//4 
f 5//5 6//6 7//7 
f 7//7 6//6 8//8 
f 4//4 6//6 3//3 
f 3//3 6//6 5//5 
f 2//2 8//8 4//4 
f 4//4 8//8 6//6 
f 1//1 7//7 2//2 
f 2//2 7//7 8//8 
f 3//3 5//5 1//1 
f 1//1 5//5 7//7 
