# Blender v2.79 (sub 0) OBJ File: ''
# www.blender.org
o Cone001
v 0.634300 0.000000 -0.042100
v 0.014000 0.000000 -0.662300
v 0.014000 1.725400 -0.042100
v -0.606200 0.000000 -0.042100
v 0.014000 -0.000000 0.578200
v 0.014000 -1.725400 -0.042100
v -0.606200 0.000000 -0.042100
v -0.606200 0.000000 -0.042100
v -0.606200 0.000000 -0.042100
v 0.014000 -1.725400 -0.042100
v 0.014000 -1.725400 -0.042100
v 0.014000 -1.725400 -0.042100
v 0.634300 0.000000 -0.042100
v 0.634300 0.000000 -0.042100
v 0.634300 0.000000 -0.042100
v 0.014000 1.725400 -0.042100
v 0.014000 1.725400 -0.042100
v 0.014000 1.725400 -0.042100
v 0.014000 -0.000000 0.578200
v 0.014000 -0.000000 0.578200
v 0.014000 -0.000000 0.578200
v 0.014000 0.000000 -0.662300
v 0.014000 0.000000 -0.662300
v 0.014000 0.000000 -0.662300
vt 0.750000 0.000000
vt 1.000000 0.000000
vt 0.500000 1.000000
vt 0.000000 0.000000
vt 0.250000 0.000000
vt 0.500000 1.000000
vt 0.250000 0.000000
vt 0.500000 0.000000
vt 0.500000 1.000000
vt 0.500000 0.000000
vt 0.750000 0.000000
vt 0.500000 1.000000
vt 0.750000 0.000000
vt 0.500000 1.000000
vt 1.000000 0.000000
vt 0.000000 0.000000
vt 0.500000 1.000000
vt 0.250000 0.000000
vt 0.250000 0.000000
vt 0.500000 1.000000
vt 0.500000 0.000000
vt 0.500000 0.000000
vt 0.500000 1.000000
vt 0.750000 0.000000
vn 0.6853 0.2464 -0.6854
vn -0.6853 0.2463 -0.6853
vn -0.6854 0.2464 0.6853
vn 0.6853 0.2464 0.6853
vn 0.6853 -0.2464 -0.6854
vn -0.6853 -0.2463 -0.6853
vn -0.6854 -0.2464 0.6853
vn 0.6853 -0.2464 0.6853
s 1
f 15/1/1 23/2/1 18/3/1
f 22/4/2 8/5/2 17/6/2
f 9/7/3 19/8/3 16/9/3
f 20/10/4 14/11/4 3/12/4
f 13/13/5 11/14/5 24/15/5
f 2/16/6 10/17/6 7/18/6
f 4/19/7 12/20/7 21/21/7
f 5/22/8 6/23/8 1/24/8
