# Blender v2.79 (sub 0) OBJ File: ''
# www.blender.org
o Box003
v 1.066000 1.819000 1.506000
v 1.066000 1.819000 -0.658000
v 2.998000 1.819000 -0.658000
v 2.998000 1.819000 1.506000
v 2.998000 3.505000 1.506001
v 2.998000 3.505000 -0.657999
v 1.987000 3.505000 -0.657999
v 1.989000 3.505000 1.506001
v 1.066000 2.631000 1.506001
v 1.066000 2.631000 -0.658000
v -3.096000 1.819000 0.413000
v 1.066000 1.819000 0.413000
v 1.066000 1.819000 2.242000
v -3.096000 1.819000 2.242000
v -1.158000 2.631000 2.242001
v 1.066000 2.631000 2.242001
v 1.066000 2.631000 0.413000
v -3.014000 2.631000 0.413000
v -5.032000 5.402999 2.242001
v -3.178000 2.749000 0.413000
v -3.096000 1.819000 -1.416000
v 1.066000 1.819000 -1.416000
v -1.158000 2.631000 -1.416000
v 1.066000 2.631000 -1.416000
v -5.032000 5.403000 -1.415999
v -3.120000 0.038999 3.463000
v -3.120000 0.039000 -2.663000
v 3.006000 0.039000 -2.663000
v 3.006000 0.038999 3.463000
v 3.671000 0.928999 4.128000
v -3.784000 0.928999 4.128000
v 3.671000 0.929001 -3.327000
v -3.784000 0.929001 -3.327000
v -3.120000 1.818999 3.463000
v 3.006000 1.818999 3.463000
v 3.006000 1.819000 -2.663000
v -3.120000 1.819000 -2.663000
v -3.120000 0.038999 3.463000
v -3.120000 0.038999 3.463000
v -3.120000 0.038999 3.463000
v -3.120000 0.038999 3.463000
v -3.120000 0.039000 -2.663000
v -3.120000 0.039000 -2.663000
v -3.120000 0.039000 -2.663000
v 3.006000 0.038999 3.463000
v 3.006000 0.038999 3.463000
v 3.006000 0.038999 3.463000
v -3.096000 1.819000 0.413000
v -3.096000 1.819000 0.413000
v -3.096000 1.819000 0.413000
v -3.096000 1.819000 0.413000
v -3.096000 1.819000 0.413000
v 1.066000 1.819000 -1.416000
v 1.066000 1.819000 -1.416000
v 1.066000 1.819000 -1.416000
v 1.066000 1.819000 2.242000
v 1.066000 1.819000 2.242000
v 1.066000 1.819000 2.242000
v -3.096000 1.819000 2.242000
v -3.096000 1.819000 2.242000
v -3.096000 1.819000 2.242000
v -3.096000 1.819000 2.242000
v -3.096000 1.819000 2.242000
v 1.066000 1.819000 0.413000
v 1.066000 1.819000 0.413000
v 1.066000 1.819000 0.413000
v 1.066000 1.819000 0.413000
v 1.066000 1.819000 0.413000
v 1.066000 2.631000 -1.416000
v 1.066000 2.631000 -1.416000
v 1.066000 2.631000 -1.416000
v 1.066000 2.631000 -1.416000
v -3.096000 1.819000 -1.416000
v -3.096000 1.819000 -1.416000
v -3.096000 1.819000 -1.416000
v -3.096000 1.819000 -1.416000
v -3.096000 1.819000 -1.416000
v 2.998000 1.819000 -0.658000
v 2.998000 1.819000 -0.658000
v 2.998000 1.819000 -0.658000
v 2.998000 1.819000 -0.658000
v 2.998000 1.819000 -0.658000
v 1.066000 2.631000 -0.658000
v 1.066000 2.631000 -0.658000
v 1.066000 2.631000 -0.658000
v 1.066000 2.631000 -0.658000
v -1.158000 2.631000 2.242001
v -1.158000 2.631000 2.242001
v -1.158000 2.631000 2.242001
v -1.158000 2.631000 2.242001
v -1.158000 2.631000 2.242001
v 1.066000 2.631000 2.242001
v 1.066000 2.631000 2.242001
v 1.066000 2.631000 2.242001
v 1.066000 2.631000 2.242001
v 3.671000 0.928999 4.128000
v 3.671000 0.928999 4.128000
v 3.671000 0.928999 4.128000
v 3.671000 0.928999 4.128000
v 3.671000 0.928999 4.128000
v -3.784000 0.928999 4.128000
v -3.784000 0.928999 4.128000
v -3.784000 0.928999 4.128000
v -3.784000 0.928999 4.128000
v -3.784000 0.928999 4.128000
v 1.989000 3.505000 1.506001
v 1.989000 3.505000 1.506001
v 1.989000 3.505000 1.506001
v 1.989000 3.505000 1.506001
v 1.066000 1.819000 -0.658000
v 1.066000 1.819000 -0.658000
v 1.066000 1.819000 -0.658000
v 2.998000 3.505000 1.506001
v 2.998000 3.505000 1.506001
v 2.998000 3.505000 1.506001
v 2.998000 3.505000 1.506001
v -3.784000 0.929001 -3.327000
v -3.784000 0.929001 -3.327000
v -3.784000 0.929001 -3.327000
v -3.784000 0.929001 -3.327000
v -3.784000 0.929001 -3.327000
v -1.158000 2.631000 -1.416000
v -1.158000 2.631000 -1.416000
v -1.158000 2.631000 -1.416000
v -1.158000 2.631000 -1.416000
v -1.158000 2.631000 -1.416000
v 1.066000 2.631000 0.413000
v 1.066000 2.631000 0.413000
v 1.066000 2.631000 0.413000
v 1.066000 2.631000 0.413000
v 1.066000 2.631000 0.413000
v 1.987000 3.505000 -0.657999
v 1.987000 3.505000 -0.657999
v 1.987000 3.505000 -0.657999
v 1.987000 3.505000 -0.657999
v 2.998000 3.505000 -0.657999
v 2.998000 3.505000 -0.657999
v 2.998000 3.505000 -0.657999
v -5.032000 5.402999 2.242001
v -5.032000 5.402999 2.242001
v 3.006000 1.818999 3.463000
v 3.006000 1.818999 3.463000
v 3.006000 1.818999 3.463000
v 3.006000 1.819000 -2.663000
v 3.006000 1.819000 -2.663000
v 3.006000 1.819000 -2.663000
v 3.006000 1.819000 -2.663000
v -3.120000 1.818999 3.463000
v -3.120000 1.818999 3.463000
v -3.120000 1.818999 3.463000
v -3.120000 1.818999 3.463000
v 3.671000 0.929001 -3.327000
v 3.671000 0.929001 -3.327000
v 3.671000 0.929001 -3.327000
v 3.671000 0.929001 -3.327000
v 3.671000 0.929001 -3.327000
v 1.066000 1.819000 1.506000
v 1.066000 1.819000 1.506000
v 1.066000 1.819000 1.506000
v 1.066000 1.819000 1.506000
v 1.066000 1.819000 1.506000
v -3.178000 2.749000 0.413000
v -3.178000 2.749000 0.413000
v -3.178000 2.749000 0.413000
v -3.178000 2.749000 0.413000
v -3.178000 2.749000 0.413000
v -3.178000 2.749000 0.413000
v -3.178000 2.749000 0.413000
v 2.998000 1.819000 1.506000
v 2.998000 1.819000 1.506000
v 2.998000 1.819000 1.506000
v -3.014000 2.631000 0.413000
v -3.014000 2.631000 0.413000
v -3.014000 2.631000 0.413000
v -3.120000 1.819000 -2.663000
v -3.120000 1.819000 -2.663000
v -3.120000 1.819000 -2.663000
v 3.006000 0.039000 -2.663000
v 3.006000 0.039000 -2.663000
v 3.006000 0.039000 -2.663000
v 3.006000 0.039000 -2.663000
v -5.032000 5.403000 -1.415999
v -5.032000 5.403000 -1.415999
v 1.066000 2.631000 1.506001
v 1.066000 2.631000 1.506001
v 1.066000 2.631000 1.506001
vt 1.000000 0.000000
vt 1.000000 1.000000
vt 0.000000 1.000000
vt 0.000000 1.000000
vt 0.000000 0.000000
vt 1.000000 0.000000
vt 1.000000 0.000000
vt 1.000000 1.000000
vt 0.378000 1.000000
vt 0.378000 1.000000
vt 0.381000 0.000000
vt 1.000000 0.000000
vt 0.000000 0.000000
vt 1.000000 0.000000
vt 1.000000 1.000000
vt 0.000000 0.000000
vt 1.000000 1.000000
vt 0.381000 1.000000
vt 0.000000 0.000000
vt 0.381000 1.000000
vt 0.000000 1.000000
vt 0.000000 0.000000
vt 1.000000 0.000000
vt 1.000000 1.000000
vt 1.000000 1.000000
vt 0.000000 1.000000
vt 0.000000 0.000000
vt 0.000000 0.000000
vt 1.000000 0.000000
vt 1.000000 1.000000
vt 0.000000 0.000000
vt 1.000000 1.000000
vt 0.622000 1.000000
vt 0.000000 0.000000
vt 0.622000 1.000000
vt 0.000000 1.000000
vt 0.000000 0.000000
vt 1.000000 0.000000
vt 1.000000 1.000000
vt 1.000000 1.000000
vt 0.000000 1.000000
vt 0.000000 0.000000
vt 0.000000 1.000000
vt 0.000000 0.000000
vt 0.381000 0.000000
vt 0.381000 0.000000
vt 0.378000 1.000000
vt 0.000000 1.000000
vt 1.000000 0.500000
vt 0.000000 0.500000
vt 0.000000 0.000000
vt 0.000000 0.000000
vt 1.000000 0.000000
vt 1.000000 0.500000
vt 0.501000 0.000000
vt 1.000000 0.000000
vt 1.000000 0.500000
vt 1.000000 0.500000
vt 0.021000 0.500000
vt 0.501000 0.000000
vt 0.000000 0.000000
vt 1.000000 0.000000
vt 1.000000 1.000000
vt 0.000000 0.000000
vt 1.000000 1.000000
vt 0.501000 1.000000
vt 0.000000 0.000000
vt 0.501000 1.000000
vt 0.000000 1.000000
vt 0.500000 0.000000
vt 0.500000 1.000000
vt 0.000000 1.000000
vt 0.000000 1.000000
vt 0.000000 0.000000
vt 0.500000 0.000000
vt 1.000000 0.000000
vt 1.000000 1.000000
vt 0.500000 1.000000
vt 0.500000 1.000000
vt 0.500000 0.000000
vt 1.000000 0.000000
vt 0.501000 0.000000
vt 0.021000 0.500000
vt 0.000000 0.500000
vt 0.000000 0.500000
vt 0.000000 0.000000
vt 0.501000 0.000000
vt 1.000000 0.500000
vt 1.000000 0.000000
vt 0.000000 0.000000
vt 0.000000 0.000000
vt 0.000000 0.500000
vt 1.000000 0.500000
vt 0.501000 0.000000
vt 0.021000 0.500000
vt 1.000000 0.500000
vt 1.000000 0.500000
vt 1.000000 0.000000
vt 0.501000 0.000000
vt 0.000000 0.000000
vt 0.000000 1.000000
vt 0.501000 1.000000
vt 0.000000 0.000000
vt 0.501000 1.000000
vt 1.000000 1.000000
vt 0.000000 0.000000
vt 1.000000 1.000000
vt 1.000000 0.000000
vt 0.500000 0.000000
vt 0.000000 0.000000
vt 0.000000 1.000000
vt 0.000000 1.000000
vt 0.500000 1.000000
vt 0.500000 0.000000
vt 1.000000 0.000000
vt 0.500000 0.000000
vt 0.500000 1.000000
vt 0.500000 1.000000
vt 1.000000 1.000000
vt 1.000000 0.000000
vt 0.501000 0.000000
vt 0.000000 0.000000
vt 0.000000 0.500000
vt 0.000000 0.500000
vt 0.021000 0.500000
vt 0.501000 0.000000
vt 1.000000 0.000000
vt 1.000000 1.000000
vt 0.000000 1.000000
vt 0.000000 1.000000
vt 0.000000 0.000000
vt 1.000000 0.000000
vt 1.000000 0.000000
vt 1.000000 0.993000
vt 0.000000 0.993000
vt 0.000000 0.993000
vt 0.000000 0.000000
vt 1.000000 0.000000
vt 1.000000 0.000000
vt 1.000000 0.993000
vt 0.000000 0.993000
vt 0.000000 0.993000
vt 0.000000 0.000000
vt 1.000000 0.000000
vt 1.000000 0.000000
vt 1.000000 0.993000
vt 0.000000 0.993000
vt 0.000000 0.993000
vt 0.000000 0.000000
vt 1.000000 0.000000
vt 1.000000 0.000000
vt 1.000000 0.993000
vt 0.000000 0.993000
vt 0.000000 0.993000
vt 0.000000 0.000000
vt 1.000000 0.000000
vt 1.000000 0.000000
vt 0.000000 0.000000
vt 0.000000 1.000000
vt 0.000000 1.000000
vt 1.000000 1.000000
vt 1.000000 0.000000
vt 1.000000 0.000000
vt 0.000000 0.000000
vt 0.000000 0.993000
vt 0.000000 0.993000
vt 1.000000 0.993000
vt 1.000000 0.000000
vt 1.000000 0.000000
vt 0.000000 0.000000
vt 0.000000 0.993000
vt 0.000000 0.993000
vt 1.000000 0.993000
vt 1.000000 0.000000
vt 1.000000 0.000000
vt 0.000000 0.000000
vt 0.000000 0.993000
vt 0.000000 0.993000
vt 1.000000 0.993000
vt 1.000000 0.000000
vt 1.000000 0.000000
vt 0.000000 0.000000
vt 0.000000 0.993000
vt 0.000000 0.993000
vt 1.000000 0.993000
vt 1.000000 0.000000
vn 0.0000 -1.0000 -0.0000
vn 0.0000 1.0000 0.0000
vn 0.1098 0.9658 0.2350
vn 0.0002 0.9658 0.2594
vn -0.0002 0.9662 -0.2578
vn 0.0000 -0.0000 1.0000
vn 1.0000 0.0000 0.0000
vn 0.0000 0.0000 -1.0000
vn -1.0000 -0.0000 0.0000
vn -0.9531 0.2338 -0.1924
vn -0.9777 0.2099 -0.0000
vn -0.8515 0.5243 -0.0000
vn -0.7599 0.6111 -0.2217
vn -0.8530 0.5220 0.0006
vn -0.9524 0.2334 0.1961
vn -0.9690 -0.1060 -0.2230
vn -0.9989 -0.0282 -0.0365
vn -0.9980 -0.0384 0.0494
vn -0.9998 -0.0180 0.0000
vn 0.7809 0.2060 -0.5897
vn 0.6885 0.1951 -0.6985
vn 0.5752 0.2078 -0.7912
vn 0.8812 0.3002 -0.3651
vn 0.6716 0.1957 -0.7146
vn -0.9980 -0.0384 -0.0494
vn -0.9989 -0.0283 0.0365
vn -0.9690 -0.1060 0.2230
vn 0.6716 0.1957 0.7146
vn 0.6924 0.1951 0.6947
vn 0.8812 0.3002 0.3651
vn 0.5752 0.2078 0.7912
vn 0.6885 0.1951 0.6985
vn 0.7809 0.2060 0.5897
vn 0.0196 -0.1503 0.9884
vn 0.0000 -0.1500 0.9887
vn -0.1214 -0.1627 0.9792
vn 0.0535 -0.1524 0.9869
vn -0.4682 -0.4823 0.7404
vn 0.9885 -0.1503 -0.0195
vn 0.9887 -0.1500 -0.0000
vn 0.9792 -0.1627 0.1213
vn 0.9869 -0.1524 -0.0535
vn 0.7404 -0.4823 0.4682
vn -0.0195 -0.1503 -0.9885
vn 0.0000 -0.1500 -0.9887
vn 0.1211 -0.1626 -0.9792
vn -0.0534 -0.1524 -0.9869
vn 0.4676 -0.4820 -0.7409
vn -0.9885 -0.1503 0.0195
vn -0.9887 -0.1500 -0.0000
vn -0.9792 -0.1627 -0.1211
vn -0.9869 -0.1524 0.0534
vn -0.7409 -0.4820 -0.4676
vn -0.4682 0.4823 0.7404
vn 0.0000 0.1500 0.9887
vn 0.0535 0.1524 0.9869
vn -0.1214 0.1627 0.9792
vn 0.0196 0.1503 0.9884
vn 0.7404 0.4823 0.4682
vn 0.9887 0.1500 0.0000
vn 0.9869 0.1524 -0.0535
vn 0.9792 0.1627 0.1213
vn 0.9885 0.1503 -0.0195
vn 0.4676 0.4820 -0.7409
vn 0.0000 0.1500 -0.9887
vn -0.0534 0.1524 -0.9869
vn 0.1211 0.1626 -0.9792
vn -0.0195 0.1503 -0.9885
vn -0.7409 0.4820 -0.4676
vn -0.9887 0.1500 -0.0000
vn -0.9869 0.1524 0.0534
vn -0.9792 0.1627 -0.1211
vn -0.9885 0.1503 0.0195
s 1
f 159/1/1 111/2/1 82/3/1
f 79/4/1 170/5/1 158/6/1
f 114/7/2 136/8/2 134/9/3
f 133/10/4 107/11/5 113/12/2
f 161/13/6 171/14/6 115/15/6
f 157/16/6 116/17/6 108/18/6
f 160/19/6 109/20/6 184/21/6
f 169/22/7 80/23/7 137/24/7
f 6/25/7 5/26/7 4/27/7
f 78/28/8 110/29/8 83/30/8
f 81/31/8 85/32/8 132/33/8
f 3/34/8 135/35/8 138/36/8
f 112/37/9 1/38/9 185/39/9
f 186/40/9 86/41/9 2/42/9
f 84/43/10 9/44/11 106/45/12
f 8/46/13 7/47/14 10/48/15
f 49/49/1 65/50/1 57/51/1
f 56/52/1 59/53/1 50/54/1
f 87/55/2 92/56/2 130/57/2
f 129/58/2 173/59/2 91/60/2
f 63/61/6 58/62/6 94/63/6
f 61/64/6 16/65/6 89/66/6
f 60/67/6 88/68/6 139/69/6
f 66/70/7 128/71/7 93/72/7
f 95/73/7 13/74/7 68/75/7
f 62/76/16 140/77/16 162/78/16
f 167/79/17 51/80/18 14/81/19
f 90/82/20 172/83/21 163/84/22
f 168/85/23 19/86/21 15/87/24
f 48/88/1 74/89/1 53/90/1
f 55/91/1 67/92/1 52/93/1
f 124/94/2 174/95/2 131/96/2
f 127/97/2 72/98/2 122/99/2
f 75/100/8 182/101/8 123/102/8
f 73/103/8 126/104/8 70/105/8
f 77/106/8 71/107/8 54/108/8
f 64/109/7 22/110/7 69/111/7
f 24/112/7 17/113/7 12/114/7
f 76/115/19 11/116/25 165/117/26
f 166/118/27 183/119/27 21/120/27
f 125/121/28 25/122/29 164/123/30
f 20/124/31 18/125/32 23/126/33
f 38/127/1 42/128/1 179/129/1
f 180/130/1 45/131/1 39/132/1
f 46/133/34 96/134/35 101/135/36
f 104/136/37 40/137/35 47/138/38
f 178/139/39 154/140/40 97/141/41
f 100/142/42 29/143/40 28/144/43
f 43/145/44 118/146/45 152/147/46
f 156/148/47 181/149/45 27/150/48
f 41/151/49 102/152/50 117/153/51
f 121/154/52 44/155/50 26/156/53
f 148/157/2 141/158/2 144/159/2
f 145/160/2 177/161/2 151/162/2
f 142/163/54 150/164/55 103/165/56
f 105/166/57 98/167/55 143/168/58
f 147/169/59 35/170/60 99/171/61
f 30/172/62 155/173/60 146/174/63
f 175/175/64 36/176/65 153/177/66
f 32/178/67 120/179/65 176/180/68
f 149/181/69 37/182/70 119/183/71
f 33/184/72 31/185/70 34/186/73
