# Blender v2.79 (sub 0) OBJ File: ''
# www.blender.org
o Box001
v -1.306000 -0.000000 2.263000
v -1.723000 0.000001 -4.395000
v -0.849000 -0.000000 0.191000
v -0.849000 -0.000000 1.519000
v -0.849000 0.754000 0.191000
v -0.849000 0.566999 2.750000
v -0.849000 0.566999 2.750000
v -1.467000 0.000000 -2.744000
v -0.825000 0.000000 -0.724000
v -2.332000 2.529001 -4.979000
v -0.849000 0.566999 2.750000
v -1.116000 0.000000 -2.832000
v -0.825000 0.000000 -1.334000
v -1.553000 5.460001 -4.402999
v -0.849000 2.329000 0.177000
v -0.849000 0.769000 2.130000
v -0.849000 1.028000 2.750000
v -0.849000 2.329000 2.750000
v -0.849000 0.113000 -1.250000
v -0.849000 0.113000 1.756000
v 0.000000 0.113000 -1.250000
v 0.000000 0.113000 1.756000
v -0.849000 0.113000 1.756000
v -0.849000 0.113000 -1.250000
v 0.000000 0.769000 2.130000
v -0.849000 0.769000 2.130000
v 0.000000 1.028000 2.750000
v -0.849000 1.028000 2.750000
v 0.000000 2.329000 2.750000
v -0.849000 2.329000 2.750000
v 0.000000 2.328000 -1.250000
v -0.849000 4.811000 -2.647999
v 0.849000 2.329000 0.177000
v 0.849000 2.329000 2.750000
v 0.849000 1.028000 2.750000
v 0.849000 0.769000 2.130000
v 0.849000 0.113000 -1.250000
v 0.849000 0.113000 1.756000
v 0.849000 0.113000 -1.250000
v 0.849000 0.113000 1.756000
v 0.849000 0.769000 2.130000
v 0.849000 1.028000 2.750000
v 0.849000 2.329000 2.750000
v 0.849000 4.811000 -2.647999
v 0.849000 0.566999 2.750000
v 0.826000 0.000000 -1.334000
v 1.116000 0.000000 -2.832000
v 1.553000 5.460001 -4.402999
v 0.849000 0.566999 2.750000
v 0.826000 0.000000 -0.724000
v 1.467000 0.000000 -2.744000
v 2.332000 2.529001 -4.979000
v 1.307000 -0.000000 2.263000
v 0.850000 -0.000000 1.519000
v 0.850000 -0.000000 0.191000
v 1.723000 0.000001 -4.395000
v 0.849000 0.566999 2.750000
v 0.850000 0.754000 0.191000
v -0.825000 0.000000 -1.334000
v -0.825000 0.000000 -1.334000
v -1.553000 5.460001 -4.402999
v -1.553000 5.460001 -4.402999
v 0.000000 0.769000 2.130000
v 0.000000 0.769000 2.130000
v 0.000000 0.769000 2.130000
v 0.000000 0.769000 2.130000
v 0.000000 0.769000 2.130000
v 0.000000 1.028000 2.750000
v 0.000000 1.028000 2.750000
v 0.000000 1.028000 2.750000
v 0.000000 1.028000 2.750000
v 0.000000 1.028000 2.750000
v 0.849000 0.113000 -1.250000
v 0.849000 0.113000 -1.250000
v 0.849000 0.113000 -1.250000
v 0.849000 4.811000 -2.647999
v 0.849000 4.811000 -2.647999
v 0.000000 0.113000 -1.250000
v 0.000000 0.113000 -1.250000
v 0.000000 0.113000 -1.250000
v 0.000000 0.113000 -1.250000
v 0.000000 0.113000 -1.250000
v -0.849000 0.113000 -1.250000
v -0.849000 0.113000 -1.250000
v -0.849000 0.113000 -1.250000
v -0.849000 2.329000 0.177000
v -0.849000 2.329000 0.177000
v -0.849000 2.329000 0.177000
v -0.849000 2.329000 0.177000
v -0.849000 2.329000 0.177000
v -0.849000 0.769000 2.130000
v -0.849000 0.769000 2.130000
v 0.849000 0.113000 -1.250000
v -0.849000 2.329000 2.750000
v -0.849000 2.329000 2.750000
v -0.849000 2.329000 2.750000
v 0.000000 2.328000 -1.250000
v 0.000000 2.328000 -1.250000
v 0.000000 2.328000 -1.250000
v 0.000000 2.328000 -1.250000
v 0.000000 2.328000 -1.250000
v 0.000000 2.328000 -1.250000
v 0.000000 2.328000 -1.250000
v 0.000000 2.328000 -1.250000
v 0.000000 2.328000 -1.250000
v -0.849000 0.113000 1.756000
v -0.849000 0.113000 1.756000
v -0.849000 0.769000 2.130000
v -0.849000 0.769000 2.130000
v 0.826000 0.000000 -0.724000
v 0.826000 0.000000 -0.724000
v 1.467000 0.000000 -2.744000
v 1.467000 0.000000 -2.744000
v -1.467000 0.000000 -2.744000
v -1.467000 0.000000 -2.744000
v -2.332000 2.529001 -4.979000
v -2.332000 2.529001 -4.979000
v 0.849000 0.769000 2.130000
v 0.849000 0.769000 2.130000
v 0.000000 2.329000 2.750000
v 0.000000 2.329000 2.750000
v 0.000000 2.329000 2.750000
v 0.000000 0.113000 1.756000
v 0.000000 0.113000 1.756000
v 0.000000 0.113000 1.756000
v 0.000000 0.113000 1.756000
v 0.000000 0.113000 1.756000
v 0.849000 0.566999 2.750000
v 0.849000 0.566999 2.750000
v 0.849000 0.113000 1.756000
v 0.849000 0.113000 1.756000
v 0.849000 2.329000 0.177000
v 0.849000 2.329000 0.177000
v 0.849000 2.329000 0.177000
v 0.849000 2.329000 0.177000
v 0.849000 2.329000 0.177000
v -0.849000 0.566999 2.750000
v -0.849000 0.566999 2.750000
v 1.307000 -0.000000 2.263000
v 1.307000 -0.000000 2.263000
v 1.307000 -0.000000 2.263000
v 1.307000 -0.000000 2.263000
v 0.850000 0.754000 0.191000
v 0.850000 0.754000 0.191000
v 0.850000 0.754000 0.191000
v 0.850000 0.754000 0.191000
v -0.849000 4.811000 -2.647999
v -0.849000 4.811000 -2.647999
v -0.849000 0.113000 -1.250000
v -0.849000 0.754000 0.191000
v -0.849000 0.754000 0.191000
v -0.849000 0.754000 0.191000
v -0.849000 0.754000 0.191000
v -0.849000 0.566999 2.750000
v -0.849000 0.566999 2.750000
v 0.850000 -0.000000 1.519000
v 0.850000 -0.000000 1.519000
v 0.850000 -0.000000 1.519000
v 0.849000 1.028000 2.750000
v 0.849000 1.028000 2.750000
v 0.849000 2.329000 2.750000
v 0.849000 2.329000 2.750000
v 0.849000 2.329000 2.750000
v 0.849000 1.028000 2.750000
v 0.850000 -0.000000 0.191000
v 0.850000 -0.000000 0.191000
v 0.850000 -0.000000 0.191000
v -0.849000 0.566999 2.750000
v -0.849000 0.566999 2.750000
v 1.723000 0.000001 -4.395000
v 1.723000 0.000001 -4.395000
v 0.826000 0.000000 -1.334000
v 0.826000 0.000000 -1.334000
v 1.116000 0.000000 -2.832000
v 1.116000 0.000000 -2.832000
v -1.116000 0.000000 -2.832000
v -1.116000 0.000000 -2.832000
v -1.306000 -0.000000 2.263000
v -1.306000 -0.000000 2.263000
v -1.306000 -0.000000 2.263000
v -1.306000 -0.000000 2.263000
v -0.849000 -0.000000 1.519000
v -0.849000 -0.000000 1.519000
v -0.849000 -0.000000 1.519000
v 0.849000 0.566999 2.750000
v 0.849000 0.566999 2.750000
v -0.849000 -0.000000 0.191000
v -0.849000 -0.000000 0.191000
v -0.849000 -0.000000 0.191000
v -0.849000 1.028000 2.750000
v -0.849000 1.028000 2.750000
v -0.849000 1.028000 2.750000
v -1.723000 0.000001 -4.395000
v -1.723000 0.000001 -4.395000
v 0.849000 0.769000 2.130000
v 0.849000 0.769000 2.130000
v 2.332000 2.529001 -4.979000
v 2.332000 2.529001 -4.979000
v -0.825000 0.000000 -0.724000
v -0.825000 0.000000 -0.724000
v 1.553000 5.460001 -4.402999
v 1.553000 5.460001 -4.402999
v 0.849000 0.566999 2.750000
v 0.849000 0.566999 2.750000
vt 1.000000 0.000000
vt 1.000000 1.000000
vt 0.000000 1.000000
vt 0.000000 1.000000
vt 0.000000 0.000000
vt 1.000000 0.000000
vt 0.000000 0.000000
vt 1.000000 0.000000
vt 1.000000 1.000000
vt 1.000000 1.000000
vt 0.000000 1.000000
vt 0.000000 0.000000
vt 1.000000 1.000000
vt 0.000000 1.000000
vt 0.000000 1.000000
vt 1.000000 0.000000
vt 0.000000 0.000000
vt 0.000000 1.000000
vt 1.000000 0.000000
vt 1.000000 1.000000
vt 1.000000 1.000000
vt 1.000000 0.000000
vt 0.000000 1.000000
vt 1.000000 1.000000
vt 0.500000 0.000000
vt 1.000000 1.000000
vt 0.000000 1.000000
vt 0.000000 0.000000
vt 1.000000 0.500000
vt 0.000000 1.000000
vt 0.000000 1.000000
vt 0.000000 1.000000
vt 1.000000 0.500000
vt 0.000000 1.000000
vt 1.000000 1.000000
vt 0.000000 1.000000
vt 0.500000 0.000000
vt 1.000000 1.000000
vt 0.000000 1.000000
vt 0.000000 0.000000
vt 1.000000 0.500000
vt 0.000000 1.000000
vt 0.000000 1.000000
vt 0.000000 1.000000
vt 1.000000 0.500000
vt 0.000000 1.000000
vt 1.000000 1.000000
vt 0.000000 1.000000
vt 1.000000 0.000000
vt 0.720000 0.537000
vt 0.000000 0.537000
vt 0.000000 0.537000
vt 0.000000 0.000000
vt 1.000000 0.000000
vt 1.000000 1.000000
vt 0.720000 1.000000
vt 0.720000 0.537000
vt 0.720000 0.537000
vt 1.000000 0.000000
vt 1.000000 1.000000
vt 0.500000 0.480000
vt 0.592000 0.480000
vt 0.592000 1.000000
vt 0.592000 1.000000
vt 0.500000 1.000000
vt 0.500000 0.480000
vt 0.592000 0.480000
vt 0.672000 0.480000
vt 0.672000 1.000000
vt 0.672000 1.000000
vt 0.592000 1.000000
vt 0.592000 0.480000
vt 0.672000 0.480000
vt 0.908000 0.480000
vt 0.908000 1.000000
vt 0.908000 1.000000
vt 0.672000 1.000000
vt 0.672000 0.480000
vt 0.908000 0.480000
vt 1.000000 0.480000
vt 1.000000 1.000000
vt 1.000000 1.000000
vt 0.908000 1.000000
vt 0.908000 0.480000
vt 1.000000 0.000000
vt 1.000000 1.000000
vt 1.000000 1.000000
vt 1.000000 1.000000
vt 0.480000 1.000000
vt 1.000000 1.000000
vt 1.000000 1.000000
vt 1.000000 0.000000
vt 1.000000 1.000000
vt 0.500000 1.000000
vt 1.000000 0.000000
vt 1.000000 1.000000
vt 1.000000 0.000000
vt 0.000000 0.000000
vt 0.000000 0.537000
vt 0.000000 0.537000
vt 0.720000 0.537000
vt 1.000000 0.000000
vt 1.000000 1.000000
vt 1.000000 0.000000
vt 0.720000 0.537000
vt 0.720000 0.537000
vt 0.720000 1.000000
vt 1.000000 1.000000
vt 0.500000 0.480000
vt 0.500000 1.000000
vt 0.592000 1.000000
vt 0.592000 1.000000
vt 0.592000 0.480000
vt 0.500000 0.480000
vt 0.592000 0.480000
vt 0.592000 1.000000
vt 0.672000 1.000000
vt 0.672000 1.000000
vt 0.672000 0.480000
vt 0.592000 0.480000
vt 0.672000 0.480000
vt 0.672000 1.000000
vt 0.908000 1.000000
vt 0.908000 1.000000
vt 0.908000 0.480000
vt 0.672000 0.480000
vt 0.908000 0.480000
vt 0.908000 1.000000
vt 1.000000 1.000000
vt 1.000000 1.000000
vt 1.000000 0.480000
vt 0.908000 0.480000
vt 1.000000 0.000000
vt 1.000000 1.000000
vt 1.000000 1.000000
vt 1.000000 1.000000
vt 1.000000 0.000000
vt 1.000000 1.000000
vt 1.000000 1.000000
vt 0.480000 1.000000
vt 1.000000 1.000000
vt 0.500000 1.000000
vt 1.000000 1.000000
vt 1.000000 0.000000
vt 0.500000 1.000000
vt 1.000000 1.000000
vt 1.000000 1.000000
vt 0.500000 0.480000
vt 1.000000 1.000000
vt 0.500000 1.000000
vt 0.500000 1.000000
vt 1.000000 1.000000
vt 1.000000 1.000000
vt 1.000000 1.000000
vt 0.500000 0.480000
vt 0.500000 1.000000
vt 0.500000 0.000000
vt 0.000000 1.000000
vt 1.000000 1.000000
vt 0.000000 0.000000
vt 0.000000 1.000000
vt 1.000000 0.500000
vt 0.000000 1.000000
vt 1.000000 0.500000
vt 0.000000 1.000000
vt 0.000000 1.000000
vt 0.000000 1.000000
vt 1.000000 1.000000
vt 0.500000 0.000000
vt 0.000000 1.000000
vt 1.000000 1.000000
vt 0.000000 0.000000
vt 0.000000 1.000000
vt 1.000000 0.500000
vt 0.000000 1.000000
vt 1.000000 0.500000
vt 0.000000 1.000000
vt 0.000000 1.000000
vt 0.000000 1.000000
vt 1.000000 1.000000
vt 1.000000 0.000000
vt 0.000000 0.000000
vt 0.000000 1.000000
vt 0.000000 1.000000
vt 1.000000 1.000000
vt 1.000000 0.000000
vt 0.000000 0.000000
vt 0.000000 1.000000
vt 1.000000 1.000000
vt 1.000000 1.000000
vt 1.000000 0.000000
vt 0.000000 0.000000
vt 1.000000 1.000000
vt 0.000000 1.000000
vt 0.000000 1.000000
vt 1.000000 0.000000
vt 0.000000 1.000000
vt 0.000000 0.000000
vt 1.000000 0.000000
vt 1.000000 1.000000
vt 1.000000 1.000000
vt 1.000000 0.000000
vt 1.000000 1.000000
vt 0.000000 1.000000
vn -0.0000 -1.0000 -0.0000
vn 1.0000 -0.0000 0.0000
vn 0.9824 -0.0000 -0.1869
vn 0.5629 -0.7507 0.3458
vn -0.7869 0.6157 0.0422
vn -0.7927 0.6079 0.0450
vn -0.7884 0.6132 0.0489
vn -0.7916 0.6092 0.0470
vn -0.7960 0.6037 0.0441
vn -0.7972 0.6015 0.0521
vn -0.4451 -0.8843 0.1411
vn -0.9677 -0.2152 0.1311
vn 0.9009 0.4294 -0.0639
vn 0.9514 0.0582 -0.3024
vn -0.5672 -0.8162 0.1100
vn -0.9965 -0.0642 0.0542
vn 0.9920 0.1257 -0.0116
vn 0.9814 0.0239 -0.1902
vn -1.0000 -0.0000 0.0000
vn -0.0001 -0.4958 0.8684
vn -0.0004 -0.4956 0.8685
vn 0.0004 -0.4956 0.8685
vn 0.0000 -0.4958 0.8684
vn 0.0000 -0.4959 0.8684
vn 0.0004 -0.4957 0.8685
vn -0.0001 -0.9226 0.3858
vn 0.0003 -0.9226 0.3858
vn 0.0001 -0.9226 0.3857
vn -0.0000 -0.9225 0.3859
vn -0.0003 -0.9227 0.3856
vn 0.0000 -0.0000 1.0000
vn 0.7430 0.5028 0.4417
vn 0.0000 1.0000 -0.0002
vn 0.0003 1.0000 0.0001
vn 0.0008 1.0000 0.0000
vn -0.0005 -0.4956 0.8686
vn 0.0000 -0.9226 0.3858
vn -0.0003 -0.9226 0.3858
vn 0.0002 -0.9226 0.3857
vn -0.7430 0.5028 0.4417
vn -0.0017 1.0000 -0.0004
vn -0.0008 1.0000 0.0000
vn -0.0012 1.0000 0.0000
vn -0.0003 1.0000 0.0001
vn -0.0006 1.0000 0.0001
vn -0.5970 -0.2288 -0.7689
vn 0.0000 0.0000 -1.0000
vn 0.5970 -0.2288 -0.7689
vn 0.5671 -0.8163 0.1100
vn 0.9965 -0.0642 0.0542
vn -0.9920 0.1259 -0.0120
vn -0.9815 0.0239 -0.1900
vn 0.4451 -0.8843 0.1410
vn 0.9677 -0.2152 0.1311
vn -0.9011 0.4289 -0.0640
vn -0.9515 0.0581 -0.3021
vn -1.0000 -0.0002 -0.0001
vn -1.0000 -0.0001 -0.0001
vn -1.0000 -0.0003 -0.0003
vn -1.0000 0.0003 0.0004
vn -1.0000 0.0003 -0.0006
vn -0.9824 0.0000 -0.1870
vn -0.5629 -0.7506 0.3460
vn 0.7871 0.6154 0.0424
vn 0.7883 0.6133 0.0489
vn 0.7928 0.6078 0.0449
vn 0.7913 0.6096 0.0472
vn 0.7966 0.6022 0.0524
vn 0.7958 0.6040 0.0441
s 1
f 180/1/1 193/2/1 189/3/1
f 187/4/1 183/5/1 179/6/1
f 184/7/2 188/8/2 151/9/2
f 150/10/2 154/11/2 182/12/2
f 153/13/3 3/14/3 194/15/3
f 178/16/4 4/17/4 155/18/4
f 181/19/5 152/20/6 2/21/7
f 1/22/8 6/23/9 5/24/10
f 138/25/11 115/26/11 199/27/11
f 114/28/12 137/29/12 116/30/12
f 200/31/13 117/32/13 7/33/13
f 9/34/14 8/35/14 10/36/14
f 168/37/15 176/38/15 60/39/15
f 177/40/16 169/41/16 62/42/16
f 59/43/17 61/44/17 11/45/17
f 13/46/18 12/47/18 14/48/18
f 86/49/19 91/50/19 17/51/19
f 190/52/19 18/53/19 90/54/19
f 149/55/19 20/56/19 92/57/19
f 16/58/19 89/59/19 19/60/19
f 79/61/1 123/62/1 23/63/1
f 107/64/1 83/65/1 78/66/1
f 124/67/20 66/68/21 109/69/22
f 108/70/23 106/71/24 22/72/25
f 63/73/26 68/74/27 192/75/26
f 28/76/28 26/77/29 25/78/30
f 70/79/31 121/80/31 30/81/31
f 96/82/31 191/83/31 72/84/31
f 87/85/32 101/86/32 147/87/32
f 94/88/33 120/89/34 97/90/33
f 105/91/35 88/92/35 95/93/35
f 84/94/19 15/95/19 148/96/19
f 134/97/2 34/98/2 35/99/2
f 164/100/2 119/101/2 133/102/2
f 37/103/2 33/104/2 36/105/2
f 118/106/2 38/107/2 93/108/2
f 80/109/1 74/110/1 130/111/1
f 131/112/1 125/113/1 21/114/1
f 126/115/24 40/116/24 196/117/24
f 195/118/24 65/119/22 127/120/36
f 64/121/29 41/122/29 160/123/29
f 42/124/37 69/125/38 67/126/39
f 71/127/31 159/128/31 161/129/31
f 163/130/31 122/131/31 27/132/31
f 132/133/40 77/134/40 98/135/40
f 162/136/41 135/137/42 103/138/43
f 31/139/33 29/140/44 43/141/45
f 73/142/2 76/143/2 136/144/2
f 75/145/46 99/146/46 44/147/46
f 81/148/47 100/149/47 39/150/47
f 85/151/48 32/152/48 102/153/48
f 104/154/47 82/155/47 24/156/47
f 185/157/49 172/158/49 174/159/49
f 175/160/50 202/161/50 186/162/50
f 173/163/51 45/164/51 201/165/51
f 46/166/52 48/167/52 47/168/52
f 128/169/53 110/170/53 112/171/53
f 113/172/54 198/173/54 129/174/54
f 111/175/55 49/176/55 197/177/55
f 50/178/56 52/179/56 51/180/56
f 141/181/1 157/182/1 167/183/1
f 166/184/1 171/185/1 140/186/1
f 156/187/57 204/188/58 144/189/59
f 145/190/60 165/191/19 54/192/61
f 146/193/62 170/194/62 55/195/62
f 142/196/63 203/197/63 158/198/63
f 139/199/64 56/200/65 143/201/66
f 53/202/67 58/203/68 57/204/69
