# Blender v2.79 (sub 0) OBJ File: ''
# www.blender.org
o Cone001
v 0.644676 0.000000 0.000000
v 0.622676 0.166000 0.000000
v 0.004676 -0.000000 1.591000
v 0.558676 0.320000 0.000000
v 0.457676 0.453000 0.000000
v 0.324676 0.554000 0.000000
v 0.170676 0.618000 0.000000
v 0.004676 0.640000 0.000000
v -0.161324 0.618000 0.000000
v -0.315324 0.554000 0.000000
v -0.448324 0.453000 0.000000
v -0.549324 0.320000 0.000000
v -0.613324 0.166000 0.000000
v -0.635324 0.000000 0.000000
v -0.613324 -0.166000 -0.000000
v -0.549324 -0.320000 -0.000000
v -0.448324 -0.453000 -0.000000
v -0.315324 -0.554000 -0.000000
v -0.161324 -0.618000 -0.000000
v 0.004676 -0.640000 -0.000000
v 0.170676 -0.618000 -0.000000
v 0.324676 -0.554000 -0.000000
v 0.457676 -0.453000 -0.000000
v 0.558676 -0.320000 -0.000000
v 0.622676 -0.166000 -0.000000
v 0.457676 -0.453000 -0.000000
v 0.457676 -0.453000 -0.000000
v 0.558676 -0.320000 -0.000000
v 0.558676 -0.320000 -0.000000
v 0.558676 -0.320000 -0.000000
v 0.558676 -0.320000 -0.000000
v 0.004676 -0.000000 1.591000
v 0.004676 -0.000000 1.591000
v 0.004676 -0.000000 1.591000
v 0.004676 -0.000000 1.591000
v 0.004676 -0.000000 1.591000
v 0.004676 -0.000000 1.591000
v 0.004676 -0.000000 1.591000
v 0.004676 -0.000000 1.591000
v 0.004676 -0.000000 1.591000
v 0.004676 -0.000000 1.591000
v 0.004676 -0.000000 1.591000
v 0.004676 -0.000000 1.591000
v 0.004676 -0.000000 1.591000
v 0.004676 -0.000000 1.591000
v 0.004676 -0.000000 1.591000
v 0.004676 -0.000000 1.591000
v 0.004676 -0.000000 1.591000
v 0.004676 -0.000000 1.591000
v 0.004676 -0.000000 1.591000
v 0.004676 -0.000000 1.591000
v 0.004676 -0.000000 1.591000
v 0.004676 -0.000000 1.591000
v 0.004676 -0.000000 1.591000
v -0.448324 -0.453000 -0.000000
v -0.448324 -0.453000 -0.000000
v 0.558676 0.320000 0.000000
v 0.558676 0.320000 0.000000
v 0.558676 0.320000 0.000000
v 0.558676 0.320000 0.000000
v -0.635324 0.000000 0.000000
v -0.635324 0.000000 0.000000
v -0.635324 0.000000 0.000000
v -0.635324 0.000000 0.000000
v -0.635324 0.000000 0.000000
v -0.635324 0.000000 0.000000
v -0.549324 -0.320000 -0.000000
v -0.549324 -0.320000 -0.000000
v -0.549324 -0.320000 -0.000000
v -0.549324 -0.320000 -0.000000
v 0.324676 -0.554000 -0.000000
v 0.324676 -0.554000 -0.000000
v 0.324676 -0.554000 -0.000000
v 0.324676 -0.554000 -0.000000
v 0.324676 -0.554000 -0.000000
v 0.324676 -0.554000 -0.000000
v -0.315324 -0.554000 -0.000000
v -0.315324 -0.554000 -0.000000
v -0.315324 -0.554000 -0.000000
v -0.315324 -0.554000 -0.000000
v -0.315324 -0.554000 -0.000000
v -0.315324 -0.554000 -0.000000
v -0.315324 -0.554000 -0.000000
v -0.315324 -0.554000 -0.000000
v 0.644676 0.000000 0.000000
v 0.644676 0.000000 0.000000
v 0.644676 0.000000 0.000000
v 0.644676 0.000000 0.000000
v 0.644676 0.000000 0.000000
v 0.644676 0.000000 0.000000
v 0.644676 0.000000 0.000000
v 0.644676 0.000000 0.000000
v 0.622676 -0.166000 -0.000000
v 0.622676 -0.166000 -0.000000
v 0.324676 0.554000 0.000000
v 0.324676 0.554000 0.000000
v 0.324676 0.554000 0.000000
v 0.324676 0.554000 0.000000
v 0.324676 0.554000 0.000000
v 0.324676 0.554000 0.000000
v 0.004676 0.640000 0.000000
v 0.004676 0.640000 0.000000
v 0.004676 0.640000 0.000000
v 0.004676 0.640000 0.000000
v -0.549324 0.320000 0.000000
v -0.549324 0.320000 0.000000
v -0.549324 0.320000 0.000000
v -0.549324 0.320000 0.000000
v -0.613324 0.166000 0.000000
v -0.613324 0.166000 0.000000
v 0.457676 0.453000 0.000000
v 0.457676 0.453000 0.000000
v -0.315324 0.554000 0.000000
v -0.315324 0.554000 0.000000
v -0.315324 0.554000 0.000000
v -0.315324 0.554000 0.000000
v -0.315324 0.554000 0.000000
v -0.315324 0.554000 0.000000
v -0.315324 0.554000 0.000000
v -0.315324 0.554000 0.000000
v -0.448324 0.453000 0.000000
v -0.448324 0.453000 0.000000
v -0.613324 -0.166000 -0.000000
v -0.613324 -0.166000 -0.000000
v 0.004676 -0.640000 -0.000000
v 0.004676 -0.640000 -0.000000
v 0.004676 -0.640000 -0.000000
v 0.004676 -0.640000 -0.000000
v 0.170676 -0.618000 -0.000000
v 0.170676 -0.618000 -0.000000
v -0.161324 0.618000 0.000000
v -0.161324 0.618000 0.000000
v 0.622676 0.166000 0.000000
v 0.622676 0.166000 0.000000
v -0.161324 -0.618000 -0.000000
v -0.161324 -0.618000 -0.000000
v 0.170676 0.618000 0.000000
v 0.170676 0.618000 0.000000
vt 0.750000 0.000000
vt 0.792000 0.000000
vt 0.500000 1.000000
vt 0.792000 0.000000
vt 0.833000 0.000000
vt 0.500000 1.000000
vt 0.833000 0.000000
vt 0.875000 0.000000
vt 0.500000 1.000000
vt 0.875000 0.000000
vt 0.917000 0.000000
vt 0.500000 1.000000
vt 0.917000 0.000000
vt 0.958000 0.000000
vt 0.500000 1.000000
vt 0.958000 0.000000
vt 1.000000 0.000000
vt 0.500000 1.000000
vt 2.000000 0.000000
vt 1.042000 0.000000
vt 1.500000 1.000000
vt 0.042000 0.000000
vt 0.083000 0.000000
vt 0.500000 1.000000
vt 0.083000 0.000000
vt 0.125000 0.000000
vt 0.500000 1.000000
vt 0.125000 0.000000
vt 0.167000 0.000000
vt 0.500000 1.000000
vt 0.167000 0.000000
vt 0.208000 0.000000
vt 0.500000 1.000000
vt 0.208000 0.000000
vt 0.250000 0.000000
vt 0.500000 1.000000
vt 0.250000 0.000000
vt 0.292000 0.000000
vt 0.500000 1.000000
vt 0.292000 0.000000
vt 0.333000 0.000000
vt 0.500000 1.000000
vt 0.333000 0.000000
vt 0.375000 0.000000
vt 0.500000 1.000000
vt 0.375000 0.000000
vt 0.417000 0.000000
vt 0.500000 1.000000
vt 0.417000 0.000000
vt 0.458000 0.000000
vt 0.500000 1.000000
vt 0.458000 0.000000
vt 0.500000 0.000000
vt 0.500000 1.000000
vt 0.500000 0.000000
vt 0.542000 0.000000
vt 0.500000 1.000000
vt 0.542000 0.000000
vt 0.583000 0.000000
vt 0.500000 1.000000
vt 0.583000 0.000000
vt 0.625000 0.000000
vt 0.500000 1.000000
vt 0.625000 0.000000
vt 0.667000 0.000000
vt 0.500000 1.000000
vt 0.667000 0.000000
vt 0.708000 0.000000
vt 0.500000 1.000000
vt 0.708000 0.000000
vt 0.750000 0.000000
vt 0.500000 1.000000
vt 0.750000 0.933000
vt 0.854000 0.854000
vt 0.933000 0.750000
vt 0.933000 0.750000
vt 0.983000 0.629000
vt 1.000000 0.500000
vt 1.000000 0.500000
vt 0.983000 0.371000
vt 0.933000 0.250000
vt 0.933000 0.750000
vt 1.000000 0.500000
vt 0.933000 0.250000
vt 0.933000 0.250000
vt 0.854000 0.146000
vt 0.750000 0.067000
vt 0.750000 0.067000
vt 0.629000 0.017000
vt 0.500000 0.000000
vt 0.933000 0.250000
vt 0.750000 0.067000
vt 0.500000 0.000000
vt 0.500000 0.000000
vt 0.371000 0.017000
vt 0.250000 0.067000
vt 0.250000 0.067000
vt 0.146000 0.146000
vt 0.067000 0.250000
vt 0.500000 0.000000
vt 0.250000 0.067000
vt 0.067000 0.250000
vt 0.933000 0.250000
vt 0.500000 0.000000
vt 0.067000 0.250000
vt 0.067000 0.250000
vt 0.017000 0.371000
vt 0.000000 0.500000
vt 0.000000 0.500000
vt 0.017000 0.629000
vt 0.067000 0.750000
vt 0.067000 0.250000
vt 0.000000 0.500000
vt 0.067000 0.750000
vt 0.067000 0.750000
vt 0.146000 0.854000
vt 0.250000 0.933000
vt 0.250000 0.933000
vt 0.371000 0.983000
vt 0.500000 1.000000
vt 0.067000 0.750000
vt 0.250000 0.933000
vt 0.500000 1.000000
vt 0.067000 0.250000
vt 0.067000 0.750000
vt 0.500000 1.000000
vt 0.933000 0.250000
vt 0.067000 0.250000
vt 0.500000 1.000000
vt 0.933000 0.750000
vt 0.933000 0.250000
vt 0.500000 1.000000
vt 0.750000 0.933000
vt 0.933000 0.750000
vt 0.500000 1.000000
vt 0.629000 0.983000
vt 0.750000 0.933000
vt 0.500000 1.000000
vn 0.9484 0.0601 0.3114
vn 0.9318 0.1879 0.3105
vn 0.9208 0.1220 0.3704
vn 0.9004 0.3028 0.3125
vn 0.8494 0.4249 0.3130
vn 0.8578 0.3565 0.3704
vn 0.7937 0.5233 0.3101
vn 0.7156 0.6252 0.3115
vn 0.7397 0.5617 0.3706
vn 0.6252 0.7156 0.3115
vn 0.5233 0.7937 0.3101
vn 0.5617 0.7397 0.3706
vn 0.4249 0.8494 0.3130
vn 0.3028 0.9004 0.3125
vn 0.3565 0.8578 0.3704
vn 0.1879 0.9318 0.3105
vn 0.0601 0.9484 0.3114
vn 0.1220 0.9208 0.3704
vn -0.0601 0.9484 0.3114
vn -0.1879 0.9318 0.3105
vn -0.1220 0.9208 0.3704
vn -0.3028 0.9004 0.3125
vn -0.4249 0.8494 0.3130
vn -0.3565 0.8578 0.3704
vn -0.5233 0.7937 0.3101
vn -0.6252 0.7156 0.3115
vn -0.5617 0.7397 0.3706
vn -0.7156 0.6252 0.3115
vn -0.7937 0.5233 0.3101
vn -0.7397 0.5617 0.3706
vn -0.8494 0.4249 0.3130
vn -0.9004 0.3028 0.3125
vn -0.8578 0.3565 0.3704
vn -0.9318 0.1879 0.3105
vn -0.9484 0.0601 0.3114
vn -0.9208 0.1220 0.3704
vn -0.9484 -0.0601 0.3114
vn -0.9318 -0.1879 0.3105
vn -0.9208 -0.1220 0.3704
vn -0.9004 -0.3028 0.3125
vn -0.8494 -0.4249 0.3130
vn -0.8578 -0.3565 0.3704
vn -0.7937 -0.5233 0.3101
vn -0.7156 -0.6252 0.3115
vn -0.7397 -0.5617 0.3706
vn -0.6252 -0.7156 0.3115
vn -0.5233 -0.7937 0.3101
vn -0.5617 -0.7397 0.3706
vn -0.4249 -0.8494 0.3130
vn -0.3028 -0.9004 0.3125
vn -0.3565 -0.8578 0.3704
vn -0.1879 -0.9318 0.3105
vn -0.0601 -0.9484 0.3114
vn -0.1220 -0.9208 0.3704
vn 0.0601 -0.9484 0.3114
vn 0.1879 -0.9318 0.3105
vn 0.1220 -0.9208 0.3704
vn 0.3028 -0.9004 0.3125
vn 0.4249 -0.8494 0.3130
vn 0.3565 -0.8578 0.3704
vn 0.5233 -0.7937 0.3101
vn 0.6252 -0.7156 0.3115
vn 0.5617 -0.7397 0.3706
vn 0.7156 -0.6252 0.3115
vn 0.7937 -0.5233 0.3101
vn 0.7397 -0.5617 0.3706
vn 0.8494 -0.4249 0.3130
vn 0.9004 -0.3028 0.3125
vn 0.8578 -0.3565 0.3704
vn 0.9318 -0.1879 0.3105
vn 0.9484 -0.0601 0.3114
vn 0.9208 -0.1220 0.3704
vn -0.0000 0.0000 -1.0000
s 1
f 92/1/1 133/2/2 41/3/3
f 134/4/4 57/5/5 33/6/6
f 58/7/7 111/8/8 52/9/9
f 112/10/10 98/11/11 47/12/12
f 100/13/13 138/14/14 44/15/15
f 137/16/16 102/17/17 42/18/18
f 104/19/19 131/20/20 38/21/21
f 132/22/22 117/23/23 54/24/24
f 113/25/25 121/26/26 50/27/27
f 122/28/28 107/29/29 49/30/30
f 108/31/31 110/32/32 45/33/33
f 109/34/34 63/35/35 39/36/36
f 66/37/37 123/38/38 36/39/39
f 124/40/40 69/41/41 35/42/42
f 70/43/43 55/44/44 32/45/45
f 56/46/46 80/47/47 46/48/48
f 84/49/49 135/50/50 43/51/51
f 136/52/52 126/53/53 40/54/54
f 127/55/55 129/56/56 37/57/57
f 130/58/58 71/59/59 34/60/60
f 72/61/61 27/62/62 53/63/63
f 26/64/64 28/65/65 51/66/66
f 29/67/67 94/68/68 48/69/69
f 93/70/70 85/71/71 3/72/72
f 31/73/73 23/74/73 75/75/73
f 76/76/73 21/77/73 128/78/73
f 125/79/73 19/80/73 79/81/73
f 73/82/73 20/83/73 81/84/73
f 77/85/73 17/86/73 68/87/73
f 67/88/73 15/89/73 61/90/73
f 82/91/73 16/92/73 65/93/73
f 62/94/73 13/95/73 105/96/73
f 106/97/73 11/98/73 115/99/73
f 64/100/73 12/101/73 119/102/73
f 83/103/73 14/104/73 120/105/73
f 118/106/73 9/107/73 103/108/73
f 101/109/73 7/110/73 95/111/73
f 114/112/73 8/113/73 97/114/73
f 99/115/73 5/116/73 59/117/73
f 60/118/73 2/119/73 89/120/73
f 96/121/73 4/122/73 86/123/73
f 116/124/73 6/125/73 90/126/73
f 78/127/73 10/128/73 87/129/73
f 74/130/73 18/131/73 91/132/73
f 30/133/73 22/134/73 88/135/73
f 25/136/73 24/137/73 1/138/73
